<svg width="604" height="720" viewBox="0 0 604 720" fill="none" xmlns="http://www.w3.org/2000/svg">
<rect width="604" height="720" fill="white"/>
<path d="M223.529 243H217.847V214.192H223.529V243ZM240.831 226.908C240.434 226.855 240.05 226.828 239.679 226.828C239.335 226.802 238.964 226.788 238.567 226.788C237.878 226.788 237.255 226.868 236.699 227.027C236.169 227.159 235.706 227.411 235.308 227.782C234.911 228.153 234.606 228.669 234.394 229.331C234.182 229.967 234.076 230.788 234.076 231.795V243H228.593V221.623H233.997V225.358C234.606 224.033 235.388 223.093 236.341 222.537C237.295 221.954 238.394 221.663 239.639 221.663C239.825 221.663 240.023 221.676 240.235 221.702C240.447 221.702 240.646 221.716 240.831 221.742V226.908ZM252.828 225.437C251.238 225.437 249.993 226.033 249.093 227.225C248.218 228.391 247.781 230.1 247.781 232.351C247.781 234.603 248.218 236.312 249.093 237.477C249.993 238.643 251.238 239.225 252.828 239.225C254.417 239.225 255.649 238.643 256.523 237.477C257.424 236.312 257.874 234.603 257.874 232.351C257.874 230.1 257.424 228.391 256.523 227.225C255.649 226.033 254.417 225.437 252.828 225.437ZM252.828 243.517C251.424 243.517 250.086 243.292 248.814 242.841C247.543 242.364 246.417 241.663 245.437 240.735C244.457 239.808 243.675 238.656 243.093 237.278C242.51 235.874 242.218 234.232 242.218 232.351C242.218 230.471 242.51 228.828 243.093 227.424C243.675 226.02 244.457 224.855 245.437 223.927C246.417 223 247.543 222.312 248.814 221.861C250.086 221.384 251.424 221.146 252.828 221.146C254.205 221.146 255.53 221.384 256.801 221.861C258.099 222.312 259.238 223 260.218 223.927C261.198 224.855 261.98 226.02 262.563 227.424C263.145 228.828 263.437 230.471 263.437 232.351C263.437 234.232 263.145 235.874 262.563 237.278C261.98 238.656 261.198 239.808 260.218 240.735C259.238 241.663 258.099 242.364 256.801 242.841C255.53 243.292 254.205 243.517 252.828 243.517ZM272.414 224.444C273.024 223.358 273.871 222.537 274.958 221.98C276.07 221.424 277.289 221.146 278.613 221.146C281.183 221.146 283.05 221.888 284.216 223.371C285.408 224.828 286.004 226.881 286.004 229.53V243H280.52V230.722C280.52 230.033 280.467 229.384 280.361 228.775C280.282 228.139 280.11 227.583 279.845 227.106C279.58 226.629 279.196 226.259 278.693 225.994C278.216 225.702 277.593 225.557 276.825 225.557C275.924 225.557 275.183 225.729 274.6 226.073C274.044 226.418 273.593 226.881 273.249 227.464C272.931 228.02 272.706 228.682 272.573 229.451C272.467 230.219 272.414 231.027 272.414 231.874V243H266.931V221.623H272.414V224.444ZM324.638 233.543C324.452 235 324.015 236.338 323.326 237.557C322.664 238.775 321.79 239.835 320.704 240.735C319.618 241.61 318.346 242.298 316.889 242.802C315.459 243.278 313.883 243.517 312.161 243.517C310.015 243.517 308.108 243.172 306.439 242.484C304.77 241.768 303.353 240.762 302.187 239.464C301.048 238.139 300.174 236.55 299.565 234.696C298.982 232.841 298.691 230.762 298.691 228.457C298.691 226.179 299.009 224.126 299.644 222.298C300.28 220.471 301.181 218.921 302.346 217.649C303.538 216.378 304.969 215.398 306.638 214.709C308.333 214.02 310.227 213.676 312.32 213.676C314.015 213.676 315.565 213.914 316.969 214.391C318.373 214.841 319.605 215.504 320.664 216.378C321.724 217.226 322.585 218.259 323.247 219.477C323.936 220.669 324.399 222.02 324.638 223.53H319.234C318.969 222.524 318.598 221.689 318.121 221.027C317.671 220.338 317.141 219.782 316.532 219.358C315.949 218.934 315.287 218.643 314.545 218.484C313.83 218.298 313.075 218.206 312.28 218.206C311.194 218.206 310.174 218.431 309.22 218.881C308.293 219.305 307.485 219.954 306.797 220.828C306.108 221.702 305.565 222.775 305.168 224.047C304.77 225.318 304.572 226.788 304.572 228.457C304.572 230.179 304.77 231.702 305.168 233.027C305.565 234.325 306.095 235.424 306.757 236.325C307.446 237.199 308.24 237.861 309.141 238.312C310.068 238.762 311.048 238.987 312.081 238.987C312.929 238.987 313.737 238.894 314.505 238.709C315.273 238.497 315.962 238.179 316.571 237.755C317.207 237.305 317.75 236.735 318.201 236.047C318.651 235.358 318.995 234.523 319.234 233.543H324.638ZM337.303 225.437C335.714 225.437 334.469 226.033 333.568 227.225C332.694 228.391 332.257 230.1 332.257 232.351C332.257 234.603 332.694 236.312 333.568 237.477C334.469 238.643 335.714 239.225 337.303 239.225C338.893 239.225 340.124 238.643 340.998 237.477C341.899 236.312 342.349 234.603 342.349 232.351C342.349 230.1 341.899 228.391 340.998 227.225C340.124 226.033 338.893 225.437 337.303 225.437ZM337.303 243.517C335.899 243.517 334.561 243.292 333.29 242.841C332.018 242.364 330.893 241.663 329.912 240.735C328.932 239.808 328.151 238.656 327.568 237.278C326.985 235.874 326.694 234.232 326.694 232.351C326.694 230.471 326.985 228.828 327.568 227.424C328.151 226.02 328.932 224.855 329.912 223.927C330.893 223 332.018 222.312 333.29 221.861C334.561 221.384 335.899 221.146 337.303 221.146C338.681 221.146 340.005 221.384 341.277 221.861C342.575 222.312 343.714 223 344.694 223.927C345.674 224.855 346.455 226.02 347.038 227.424C347.621 228.828 347.912 230.471 347.912 232.351C347.912 234.232 347.621 235.874 347.038 237.278C346.455 238.656 345.674 239.808 344.694 240.735C343.714 241.663 342.575 242.364 341.277 242.841C340.005 243.292 338.681 243.517 337.303 243.517ZM363.645 226.908C363.248 226.855 362.863 226.828 362.493 226.828C362.148 226.802 361.777 226.788 361.38 226.788C360.691 226.788 360.069 226.868 359.512 227.027C358.983 227.159 358.519 227.411 358.122 227.782C357.724 228.153 357.42 228.669 357.208 229.331C356.996 229.967 356.89 230.788 356.89 231.795V243H351.407V221.623H356.811V225.358C357.42 224.033 358.201 223.093 359.155 222.537C360.109 221.954 361.208 221.663 362.453 221.663C362.638 221.663 362.837 221.676 363.049 221.702C363.261 221.702 363.459 221.716 363.645 221.742V226.908ZM375.84 243.517C374.091 243.517 372.542 243.225 371.191 242.643C369.866 242.033 368.74 241.212 367.813 240.179C366.913 239.146 366.224 237.954 365.747 236.603C365.297 235.225 365.072 233.768 365.072 232.232C365.072 230.643 365.323 229.172 365.827 227.822C366.33 226.471 367.045 225.305 367.972 224.325C368.899 223.318 370.012 222.537 371.31 221.98C372.608 221.424 374.065 221.146 375.681 221.146C377.35 221.146 378.833 221.451 380.131 222.06C381.456 222.669 382.568 223.53 383.469 224.643C384.37 225.755 385.032 227.093 385.456 228.656C385.906 230.219 386.105 231.941 386.052 233.821H370.555C370.608 235.411 371.111 236.722 372.065 237.755C373.019 238.762 374.264 239.265 375.8 239.265C376.701 239.265 377.509 239.093 378.224 238.749C378.966 238.378 379.615 237.729 380.171 236.802H385.813C385.522 237.596 385.111 238.391 384.581 239.186C384.078 239.98 383.416 240.709 382.595 241.371C381.8 242.007 380.846 242.523 379.734 242.921C378.621 243.318 377.323 243.517 375.84 243.517ZM375.562 225.159C375.005 225.159 374.449 225.265 373.893 225.477C373.336 225.663 372.82 225.967 372.343 226.391C371.893 226.788 371.509 227.292 371.191 227.901C370.873 228.51 370.674 229.225 370.595 230.047H380.489C380.462 229.146 380.303 228.391 380.012 227.782C379.721 227.146 379.336 226.643 378.86 226.272C378.409 225.874 377.893 225.596 377.31 225.437C376.754 225.252 376.171 225.159 375.562 225.159Z" fill="#231F20"/>
<path d="M66.3178 268.453C67.119 268.453 67.8868 268.5 68.6212 268.594C69.3689 268.687 70.0232 268.894 70.584 269.214C71.1582 269.535 71.6188 269.996 71.966 270.596C72.3132 271.197 72.4868 272.005 72.4868 273.02C72.4868 273.941 72.3265 274.689 72.0061 275.263C71.6856 275.837 71.2516 276.291 70.7042 276.625C70.1567 276.959 69.5091 277.186 68.7614 277.306C68.0136 277.426 67.2125 277.486 66.3579 277.486H64.0746V282.974H61.5309V268.453H66.3178ZM64.0746 270.496V275.403H66.438C66.9187 275.403 67.366 275.377 67.78 275.323C68.1939 275.27 68.5544 275.163 68.8615 275.003C69.1686 274.843 69.409 274.609 69.5826 274.302C69.7561 273.981 69.8429 273.561 69.8429 273.04C69.8429 272.453 69.7428 271.992 69.5425 271.658C69.3422 271.311 69.0752 271.057 68.7413 270.897C68.4209 270.723 68.047 270.617 67.6197 270.576C67.1924 270.523 66.7585 270.496 66.3178 270.496H64.0746ZM79.7 274.622C79.2994 274.582 78.9189 274.562 78.5583 274.562C78.1845 274.562 77.8506 274.609 77.5569 274.702C77.2631 274.783 77.0161 274.929 76.8158 275.143C76.6155 275.343 76.462 275.624 76.3552 275.984C76.2483 276.345 76.1949 276.792 76.1949 277.326V282.974H73.8115V272.199H76.1549V274.122C76.4486 273.521 76.8425 273.053 77.3366 272.72C77.844 272.372 78.4248 272.192 79.0791 272.179C79.1726 272.179 79.2727 272.185 79.3795 272.199C79.4997 272.199 79.6065 272.205 79.7 272.219V274.622ZM83.5884 268.453V270.857H81.205V268.453H83.5884ZM83.5884 272.199V282.974H81.205V272.199H83.5884ZM88.6543 282.974H86.2709V272.199H88.6543V273.701C88.9614 273.14 89.3754 272.713 89.8961 272.419C90.4302 272.112 91.0578 271.958 91.7788 271.958C92.62 271.958 93.2877 272.125 93.7817 272.459C94.2891 272.793 94.6697 273.26 94.9234 273.861C95.3907 273.18 95.9248 272.693 96.5257 272.399C97.1266 272.105 97.7608 271.958 98.4284 271.958C99.0694 271.958 99.6101 272.059 100.051 272.259C100.505 272.459 100.872 272.746 101.152 273.12C101.433 273.494 101.633 273.941 101.753 274.462C101.887 274.983 101.954 275.564 101.954 276.205V282.974H99.5701V276.785C99.5701 276.425 99.5501 276.071 99.51 275.724C99.4833 275.377 99.4032 275.07 99.2697 274.803C99.1495 274.522 98.9625 274.302 98.7088 274.142C98.4551 273.981 98.108 273.901 97.6673 273.901C97.2267 273.901 96.8528 273.988 96.5457 274.162C96.252 274.322 96.0116 274.549 95.8247 274.843C95.6377 275.136 95.5042 275.49 95.4241 275.904C95.344 276.318 95.3039 276.765 95.3039 277.246V282.974H92.9205V276.785C92.9205 276.425 92.9005 276.071 92.8604 275.724C92.8337 275.377 92.7536 275.07 92.62 274.803C92.4999 274.522 92.3129 274.302 92.0592 274.142C91.8055 273.981 91.4584 273.901 91.0177 273.901C90.5771 273.901 90.2032 273.988 89.8961 274.162C89.6024 274.322 89.362 274.549 89.1751 274.843C88.9881 275.136 88.8546 275.49 88.7745 275.904C88.6944 276.318 88.6543 276.765 88.6543 277.246V282.974ZM111.111 277.907C110.257 277.987 109.529 278.081 108.928 278.187C108.327 278.294 107.833 278.428 107.446 278.588C107.059 278.748 106.772 278.942 106.585 279.169C106.411 279.383 106.324 279.643 106.324 279.95C106.324 280.417 106.505 280.785 106.865 281.052C107.226 281.319 107.706 281.452 108.307 281.452C109.189 281.452 109.876 281.212 110.37 280.731C110.864 280.237 111.111 279.423 111.111 278.288V277.907ZM108.848 271.878C109.516 271.878 110.13 271.958 110.691 272.119C111.265 272.279 111.759 272.539 112.173 272.9C112.587 273.26 112.901 273.734 113.114 274.322C113.341 274.909 113.448 275.63 113.435 276.485C113.435 276.619 113.428 276.799 113.415 277.026C113.415 277.239 113.415 277.473 113.415 277.727C113.415 277.98 113.408 278.248 113.395 278.528C113.395 278.795 113.395 279.049 113.395 279.289C113.395 279.97 113.421 280.644 113.475 281.312C113.528 281.966 113.608 282.52 113.715 282.974H111.532C111.492 282.747 111.452 282.527 111.412 282.313C111.385 282.1 111.358 281.806 111.332 281.432C110.998 282.033 110.524 282.487 109.91 282.794C109.295 283.088 108.588 283.235 107.786 283.235C107.199 283.235 106.658 283.155 106.164 282.994C105.683 282.848 105.263 282.634 104.902 282.353C104.555 282.073 104.281 281.739 104.081 281.352C103.894 280.951 103.801 280.504 103.801 280.01C103.801 279.342 103.994 278.788 104.382 278.348C104.769 277.907 105.29 277.547 105.944 277.266C106.611 276.986 107.379 276.772 108.247 276.625C109.128 276.478 110.063 276.351 111.051 276.245V275.984C111.051 275.53 110.991 275.156 110.871 274.863C110.751 274.556 110.584 274.315 110.37 274.142C110.17 273.955 109.93 273.828 109.649 273.761C109.369 273.681 109.062 273.641 108.728 273.641C108.114 273.641 107.6 273.801 107.186 274.122C106.772 274.442 106.551 274.929 106.525 275.584H104.181C104.221 275.036 104.362 274.536 104.602 274.082C104.842 273.628 105.163 273.24 105.563 272.92C105.977 272.586 106.458 272.332 107.005 272.159C107.566 271.972 108.18 271.878 108.848 271.878ZM121.733 274.622C121.333 274.582 120.952 274.562 120.592 274.562C120.218 274.562 119.884 274.609 119.59 274.702C119.296 274.783 119.049 274.929 118.849 275.143C118.649 275.343 118.495 275.624 118.389 275.984C118.282 276.345 118.228 276.792 118.228 277.326V282.974H115.845V272.199H118.188V274.122C118.482 273.521 118.876 273.053 119.37 272.72C119.877 272.372 120.458 272.192 121.112 272.179C121.206 272.179 121.306 272.185 121.413 272.199C121.533 272.199 121.64 272.205 121.733 272.219V274.622ZM123.209 286.479V284.657H124.11C124.364 284.657 124.584 284.643 124.771 284.617C124.971 284.603 125.145 284.543 125.292 284.436C125.452 284.343 125.592 284.196 125.713 283.996C125.833 283.796 125.953 283.522 126.073 283.175L126.193 282.914L122.288 272.199H124.891L127.335 279.93L129.778 272.199H132.222L128.436 282.954C128.183 283.649 127.936 284.223 127.695 284.677C127.468 285.131 127.201 285.491 126.894 285.758C126.587 286.025 126.227 286.212 125.813 286.319C125.399 286.426 124.891 286.479 124.29 286.479H123.209ZM63.2669 305.69L65.4701 294.453H68.1339L64.749 308.974H61.7447L59.3011 297.838L56.8977 308.974H53.8533L50.4484 294.453H53.2124L55.5357 305.67L57.839 294.453H60.7833L63.2669 305.69ZM72.0092 294.453V296.857H69.6257V294.453H72.0092ZM72.0092 298.199V308.974H69.6257V298.199H72.0092ZM77.0751 299.701C77.3822 299.14 77.8095 298.713 78.3569 298.419C78.9178 298.112 79.5787 297.958 80.3398 297.958C80.9941 297.958 81.5482 298.059 82.0022 298.259C82.4696 298.459 82.8501 298.746 83.1439 299.12C83.4376 299.494 83.6513 299.941 83.7848 300.462C83.9317 300.983 84.0051 301.564 84.0051 302.205V308.974H81.6217V302.785C81.6217 302.425 81.6016 302.071 81.5616 301.724C81.5215 301.377 81.428 301.07 81.2812 300.803C81.1476 300.522 80.9407 300.302 80.6603 300.142C80.3932 299.981 80.0327 299.901 79.5787 299.901C79.1247 299.901 78.7375 299.988 78.417 300.162C78.0966 300.322 77.8362 300.549 77.6359 300.843C77.4356 301.136 77.2887 301.49 77.1953 301.904C77.1152 302.318 77.0751 302.765 77.0751 303.246V308.974H74.6917V298.199H77.0751V299.701ZM93.5763 294.453H95.9597V308.974H93.5763V307.552C93.2558 308.086 92.8218 308.5 92.2744 308.794C91.7269 309.088 91.0927 309.235 90.3716 309.235C89.7174 309.235 89.1031 309.108 88.529 308.854C87.9682 308.587 87.4808 308.207 87.0669 307.713C86.6529 307.218 86.3258 306.624 86.0854 305.93C85.8585 305.236 85.745 304.455 85.745 303.587C85.745 302.732 85.8585 301.958 86.0854 301.263C86.3258 300.569 86.6529 299.975 87.0669 299.481C87.4808 298.987 87.9682 298.613 88.529 298.359C89.1031 298.092 89.7174 297.958 90.3716 297.958C91.0927 297.958 91.7269 298.105 92.2744 298.399C92.8218 298.693 93.2558 299.107 93.5763 299.641V294.453ZM93.6764 303.587C93.6764 302.972 93.603 302.432 93.4561 301.964C93.3092 301.497 93.1089 301.116 92.8552 300.823C92.6149 300.515 92.3211 300.288 91.974 300.142C91.6401 299.981 91.2796 299.901 90.8924 299.901C90.0512 299.901 89.3969 300.235 88.9296 300.903C88.4622 301.557 88.2285 302.452 88.2285 303.587C88.2285 304.735 88.4622 305.643 88.9296 306.311C89.3969 306.965 90.0512 307.292 90.8924 307.292C91.2796 307.292 91.6401 307.218 91.974 307.072C92.3211 306.911 92.6149 306.678 92.8552 306.371C93.1089 306.063 93.3092 305.683 93.4561 305.229C93.603 304.762 93.6764 304.214 93.6764 303.587ZM101.035 294.453V296.857H98.652V294.453H101.035ZM101.035 298.199V308.974H98.652V298.199H101.035ZM106.101 299.701C106.408 299.14 106.836 298.713 107.383 298.419C107.944 298.112 108.605 297.958 109.366 297.958C110.02 297.958 110.575 298.059 111.029 298.259C111.496 298.459 111.876 298.746 112.17 299.12C112.464 299.494 112.678 299.941 112.811 300.462C112.958 300.983 113.031 301.564 113.031 302.205V308.974H110.648V302.785C110.648 302.425 110.628 302.071 110.588 301.724C110.548 301.377 110.454 301.07 110.307 300.803C110.174 300.522 109.967 300.302 109.687 300.142C109.42 299.981 109.059 299.901 108.605 299.901C108.151 299.901 107.764 299.988 107.443 300.162C107.123 300.322 106.862 300.549 106.662 300.843C106.462 301.136 106.315 301.49 106.222 301.904C106.141 302.318 106.101 302.765 106.101 303.246V308.974H103.718V298.199H106.101V299.701ZM122.583 298.199H124.966V307.893C124.966 309.655 124.525 310.924 123.644 311.698C122.776 312.473 121.508 312.86 119.839 312.86C119.251 312.86 118.697 312.8 118.176 312.68C117.655 312.56 117.188 312.366 116.774 312.099C116.374 311.832 116.04 311.485 115.773 311.057C115.506 310.643 115.325 310.143 115.232 309.555H117.595C117.702 310.063 117.929 310.423 118.276 310.637C118.637 310.864 119.178 310.977 119.899 310.977C120.433 310.977 120.873 310.904 121.221 310.757C121.568 310.623 121.841 310.436 122.042 310.196C122.242 309.956 122.382 309.675 122.462 309.355C122.542 309.048 122.583 308.721 122.583 308.373V307.112C122.262 307.646 121.828 308.06 121.281 308.353C120.733 308.647 120.099 308.794 119.378 308.794C118.724 308.794 118.109 308.674 117.535 308.434C116.974 308.18 116.487 307.819 116.073 307.352C115.659 306.871 115.332 306.297 115.092 305.63C114.865 304.962 114.751 304.207 114.751 303.366C114.751 302.525 114.865 301.771 115.092 301.103C115.332 300.435 115.659 299.868 116.073 299.401C116.487 298.933 116.974 298.579 117.535 298.339C118.109 298.085 118.724 297.958 119.378 297.958C120.099 297.958 120.733 298.105 121.281 298.399C121.828 298.693 122.262 299.107 122.583 299.641V298.199ZM122.683 303.366C122.683 302.765 122.609 302.245 122.462 301.804C122.315 301.363 122.115 301.003 121.861 300.722C121.621 300.429 121.327 300.215 120.98 300.082C120.646 299.935 120.286 299.861 119.899 299.861C119.057 299.861 118.403 300.175 117.936 300.803C117.468 301.43 117.235 302.285 117.235 303.366C117.235 304.475 117.468 305.342 117.936 305.97C118.403 306.598 119.057 306.911 119.899 306.911C120.286 306.911 120.646 306.845 120.98 306.711C121.327 306.564 121.621 306.344 121.861 306.05C122.115 305.756 122.315 305.389 122.462 304.949C122.609 304.495 122.683 303.967 122.683 303.366ZM133.908 301.223C133.788 300.716 133.508 300.349 133.067 300.122C132.626 299.895 132.066 299.781 131.385 299.781C130.837 299.781 130.363 299.888 129.963 300.102C129.575 300.302 129.382 300.582 129.382 300.943C129.382 301.61 129.902 302.051 130.944 302.265L132.406 302.565C132.94 302.685 133.441 302.825 133.908 302.986C134.389 303.133 134.803 303.326 135.15 303.567C135.497 303.807 135.771 304.107 135.971 304.468C136.172 304.815 136.272 305.249 136.272 305.77C136.272 306.331 136.145 306.831 135.891 307.272C135.651 307.699 135.317 308.06 134.89 308.353C134.476 308.634 133.988 308.848 133.428 308.994C132.88 309.155 132.293 309.235 131.665 309.235C130.971 309.235 130.336 309.141 129.762 308.954C129.201 308.767 128.714 308.514 128.3 308.193C127.9 307.873 127.572 307.492 127.319 307.052C127.078 306.611 126.932 306.13 126.878 305.61H129.201C129.308 306.184 129.569 306.631 129.983 306.951C130.397 307.272 130.984 307.432 131.745 307.432C132.413 307.432 132.947 307.312 133.347 307.072C133.748 306.818 133.948 306.477 133.948 306.05C133.948 305.623 133.768 305.296 133.408 305.069C133.06 304.842 132.6 304.668 132.026 304.548L130.403 304.207C129.936 304.114 129.502 303.994 129.101 303.847C128.701 303.687 128.354 303.486 128.06 303.246C127.779 302.992 127.552 302.692 127.379 302.345C127.219 301.984 127.138 301.557 127.138 301.063C127.138 300.582 127.252 300.155 127.479 299.781C127.719 299.394 128.04 299.067 128.44 298.8C128.841 298.533 129.308 298.326 129.842 298.179C130.376 298.032 130.944 297.958 131.545 297.958C132.106 297.958 132.64 298.025 133.147 298.159C133.655 298.292 134.109 298.499 134.509 298.78C134.923 299.047 135.27 299.387 135.551 299.801C135.844 300.202 136.045 300.676 136.152 301.223H133.908Z" fill="#231F20"/>
<path d="M47.0706 415.046L50.7559 426.563L54.3411 415.046H57.025L52.0578 429.567H49.3338L44.3066 415.046H47.0706ZM60.8433 415.046H63.5272L68.975 429.567H66.191L65.0494 426.342H59.1609L58.0392 429.567H55.4355L60.8433 415.046ZM59.9019 424.219H64.2883L62.0851 417.99L59.9019 424.219ZM82.0287 424.74C81.7216 426.369 81.0206 427.624 79.9257 428.506C78.8308 429.387 77.4421 429.828 75.7597 429.828C74.6915 429.828 73.7434 429.647 72.9156 429.287C72.0877 428.926 71.3867 428.419 70.8125 427.765C70.2384 427.097 69.7977 426.296 69.4906 425.361C69.1969 424.426 69.05 423.392 69.05 422.257C69.05 421.122 69.2035 420.093 69.5106 419.172C69.8311 418.251 70.2851 417.463 70.8726 416.809C71.4735 416.154 72.1945 415.654 73.0357 415.307C73.8769 414.959 74.825 414.786 75.8798 414.786C77.4955 414.786 78.8441 415.226 79.9257 416.108C81.0072 416.989 81.6949 418.244 81.9887 419.873H79.5451C79.3181 418.885 78.8708 418.137 78.2032 417.63C77.5489 417.122 76.7478 416.869 75.7997 416.869C75.2256 416.869 74.6848 416.989 74.1774 417.229C73.6833 417.456 73.2494 417.797 72.8755 418.251C72.5016 418.705 72.2079 419.266 71.9942 419.933C71.7806 420.601 71.6738 421.375 71.6738 422.257C71.6738 423.138 71.7739 423.919 71.9742 424.6C72.1878 425.281 72.4816 425.855 72.8555 426.322C73.2293 426.79 73.6633 427.144 74.1574 427.384C74.6514 427.624 75.1922 427.745 75.7797 427.745C76.7678 427.745 77.589 427.497 78.2433 427.003C78.9109 426.496 79.3582 425.742 79.5852 424.74H82.0287ZM91.3232 429.567H88.7796V415.046H91.3232V429.567ZM96.5195 420.294C96.8266 419.733 97.2539 419.306 97.8013 419.012C98.3622 418.705 99.0231 418.551 99.7842 418.551C100.438 418.551 100.993 418.651 101.447 418.852C101.914 419.052 102.295 419.339 102.588 419.713C102.882 420.087 103.096 420.534 103.229 421.055C103.376 421.576 103.45 422.156 103.45 422.797V429.567H101.066V423.378C101.066 423.018 101.046 422.664 101.006 422.317C100.966 421.969 100.872 421.662 100.726 421.395C100.592 421.115 100.385 420.895 100.105 420.734C99.8376 420.574 99.4771 420.494 99.0231 420.494C98.5691 420.494 98.1819 420.581 97.8614 420.754C97.541 420.915 97.2806 421.142 97.0803 421.435C96.88 421.729 96.7331 422.083 96.6397 422.497C96.5596 422.911 96.5195 423.358 96.5195 423.839V429.567H94.1361V418.792H96.5195V420.294ZM108.214 424.179C108.214 424.807 108.28 425.354 108.414 425.822C108.561 426.276 108.761 426.656 109.015 426.963C109.269 427.27 109.562 427.504 109.896 427.664C110.243 427.811 110.611 427.885 110.998 427.885C111.839 427.885 112.493 427.558 112.961 426.903C113.428 426.236 113.662 425.328 113.662 424.179C113.662 423.044 113.428 422.15 112.961 421.495C112.493 420.828 111.839 420.494 110.998 420.494C110.611 420.494 110.243 420.574 109.896 420.734C109.562 420.881 109.269 421.108 109.015 421.415C108.761 421.709 108.561 422.09 108.414 422.557C108.28 423.024 108.214 423.565 108.214 424.179ZM108.314 418.792V420.234C108.634 419.7 109.068 419.286 109.616 418.992C110.163 418.698 110.797 418.551 111.518 418.551C112.173 418.551 112.78 418.685 113.341 418.952C113.915 419.206 114.409 419.579 114.823 420.073C115.237 420.567 115.558 421.162 115.785 421.856C116.025 422.55 116.145 423.325 116.145 424.179C116.145 425.047 116.025 425.828 115.785 426.523C115.558 427.217 115.237 427.811 114.823 428.305C114.409 428.799 113.915 429.18 113.341 429.447C112.78 429.701 112.173 429.828 111.518 429.828C110.797 429.828 110.163 429.681 109.616 429.387C109.068 429.093 108.634 428.679 108.314 428.145V433.072H105.93V418.792H108.314ZM124.746 428.085C124.439 428.646 124.012 429.08 123.464 429.387C122.93 429.681 122.296 429.828 121.561 429.828C120.921 429.828 120.373 429.727 119.919 429.527C119.465 429.327 119.091 429.04 118.797 428.666C118.504 428.292 118.29 427.845 118.157 427.324C118.023 426.803 117.956 426.222 117.956 425.581V418.792H120.34V425.001C120.34 425.361 120.36 425.715 120.4 426.062C120.44 426.409 120.527 426.723 120.66 427.003C120.794 427.27 120.994 427.484 121.261 427.644C121.528 427.805 121.882 427.885 122.323 427.885C122.763 427.885 123.137 427.805 123.444 427.644C123.765 427.471 124.018 427.237 124.205 426.943C124.392 426.65 124.526 426.296 124.606 425.882C124.699 425.468 124.746 425.021 124.746 424.54V418.792H127.129V429.567H124.746V428.085ZM130.153 415.947H132.537V418.792H134.7V420.514H132.537V426.383C132.537 426.93 132.623 427.297 132.797 427.484C132.97 427.658 133.311 427.745 133.818 427.745H134.68V429.567H132.917C132.343 429.567 131.876 429.527 131.515 429.447C131.155 429.353 130.874 429.2 130.674 428.986C130.474 428.773 130.333 428.486 130.253 428.125C130.186 427.751 130.153 427.291 130.153 426.743V420.514H128.551V418.792H130.153V415.947Z" fill="#231F20"/>
<path d="M472.271 276.385C471.697 276.265 471.156 276.104 470.649 275.904C470.142 275.691 469.694 275.417 469.307 275.083C468.933 274.749 468.633 274.355 468.406 273.901C468.192 273.434 468.085 272.893 468.085 272.279C468.085 271.598 468.246 271.004 468.566 270.496C468.887 269.989 469.307 269.568 469.828 269.235C470.349 268.887 470.936 268.627 471.59 268.453C472.245 268.28 472.906 268.193 473.573 268.193C474.294 268.193 474.969 268.28 475.596 268.453C476.224 268.614 476.785 268.874 477.279 269.235C477.773 269.582 478.187 270.029 478.52 270.576C478.868 271.111 479.115 271.758 479.262 272.519H476.798C476.691 272.079 476.524 271.718 476.297 271.438C476.07 271.144 475.803 270.917 475.496 270.757C475.189 270.583 474.855 270.463 474.495 270.396C474.147 270.316 473.794 270.276 473.433 270.276C473.153 270.276 472.846 270.309 472.512 270.376C472.191 270.443 471.891 270.556 471.61 270.717C471.343 270.864 471.116 271.057 470.93 271.298C470.743 271.538 470.649 271.838 470.649 272.199C470.649 272.76 470.849 273.194 471.25 273.501C471.664 273.794 472.185 274.001 472.812 274.122L474.595 274.462C475.236 274.582 475.85 274.742 476.437 274.943C477.038 275.13 477.566 275.39 478.02 275.724C478.487 276.058 478.861 276.472 479.141 276.966C479.422 277.46 479.562 278.074 479.562 278.808C479.562 279.543 479.395 280.19 479.061 280.751C478.727 281.299 478.287 281.759 477.739 282.133C477.205 282.494 476.591 282.767 475.897 282.954C475.216 283.141 474.515 283.235 473.794 283.235C472.926 283.235 472.131 283.121 471.41 282.894C470.703 282.667 470.082 282.34 469.548 281.913C469.027 281.472 468.606 280.938 468.286 280.311C467.965 279.683 467.765 278.969 467.685 278.167H470.188C470.415 279.169 470.843 279.917 471.47 280.411C472.098 280.905 472.912 281.152 473.914 281.152C474.341 281.152 474.742 281.105 475.116 281.012C475.503 280.918 475.837 280.778 476.117 280.591C476.397 280.404 476.618 280.177 476.778 279.91C476.938 279.63 477.018 279.316 477.018 278.969C477.018 278.595 476.925 278.281 476.738 278.027C476.564 277.774 476.331 277.56 476.037 277.386C475.756 277.213 475.436 277.079 475.075 276.986C474.728 276.879 474.381 276.792 474.034 276.725L472.271 276.385ZM486.669 283.235C485.788 283.235 485.006 283.081 484.325 282.774C483.658 282.467 483.097 282.053 482.643 281.532C482.202 281.012 481.862 280.404 481.622 279.71C481.395 279.015 481.281 278.281 481.281 277.506C481.281 276.692 481.408 275.951 481.662 275.283C481.915 274.602 482.269 274.015 482.723 273.521C483.177 273.027 483.725 272.646 484.365 272.379C485.006 272.099 485.721 271.958 486.509 271.958C487.35 271.958 488.098 272.119 488.752 272.439C489.406 272.76 489.954 273.2 490.394 273.761C490.835 274.322 491.162 274.99 491.376 275.764C491.589 276.525 491.669 277.36 491.616 278.268H483.705C483.718 278.695 483.798 279.095 483.945 279.469C484.105 279.83 484.312 280.144 484.566 280.411C484.819 280.678 485.113 280.885 485.447 281.032C485.794 281.178 486.168 281.252 486.569 281.252C487.864 281.252 488.725 280.751 489.152 279.75H491.496C491.376 280.177 491.189 280.604 490.935 281.032C490.681 281.445 490.354 281.819 489.954 282.153C489.566 282.474 489.099 282.734 488.552 282.934C488.004 283.135 487.376 283.235 486.669 283.235ZM486.509 273.821C486.175 273.821 485.841 273.875 485.507 273.981C485.187 274.088 484.893 274.255 484.626 274.482C484.372 274.696 484.159 274.976 483.985 275.323C483.811 275.657 483.718 276.058 483.705 276.525H489.192C489.179 276.111 489.099 275.737 488.952 275.403C488.805 275.056 488.612 274.769 488.371 274.542C488.131 274.315 487.85 274.142 487.53 274.021C487.21 273.888 486.869 273.821 486.509 273.821ZM498.225 271.958C498.826 271.958 499.393 272.052 499.927 272.239C500.461 272.426 500.935 272.693 501.349 273.04C501.776 273.374 502.13 273.781 502.411 274.262C502.691 274.742 502.885 275.283 502.992 275.884H500.668C500.561 275.31 500.294 274.843 499.867 274.482C499.453 274.122 498.886 273.941 498.165 273.941C497.791 273.941 497.437 274.015 497.103 274.162C496.783 274.295 496.496 274.515 496.242 274.823C496.001 275.116 495.808 275.49 495.661 275.944C495.527 276.398 495.461 276.946 495.461 277.587C495.461 278.228 495.527 278.782 495.661 279.249C495.808 279.703 496.001 280.084 496.242 280.391C496.496 280.684 496.783 280.905 497.103 281.052C497.437 281.185 497.791 281.252 498.165 281.252C498.765 281.252 499.306 281.105 499.787 280.811C500.281 280.517 500.601 280.01 500.748 279.289H503.072C502.952 279.917 502.738 280.477 502.431 280.971C502.124 281.466 501.75 281.879 501.309 282.213C500.869 282.547 500.374 282.801 499.827 282.974C499.28 283.148 498.712 283.235 498.125 283.235C497.323 283.235 496.602 283.095 495.961 282.814C495.334 282.52 494.8 282.126 494.359 281.632C493.918 281.125 493.578 280.531 493.338 279.85C493.111 279.156 492.997 278.408 492.997 277.607C492.997 276.805 493.111 276.064 493.338 275.383C493.578 274.689 493.925 274.088 494.379 273.581C494.833 273.073 495.381 272.679 496.022 272.399C496.662 272.105 497.397 271.958 498.225 271.958ZM509.472 281.292C509.872 281.292 510.24 281.218 510.573 281.072C510.907 280.911 511.201 280.684 511.455 280.391C511.708 280.084 511.902 279.703 512.036 279.249C512.182 278.782 512.256 278.234 512.256 277.607C512.256 276.992 512.182 276.452 512.036 275.984C511.902 275.517 511.708 275.13 511.455 274.823C511.201 274.515 510.907 274.288 510.573 274.142C510.24 273.981 509.872 273.901 509.472 273.901C509.071 273.901 508.704 273.981 508.37 274.142C508.036 274.288 507.743 274.515 507.489 274.823C507.235 275.13 507.035 275.517 506.888 275.984C506.755 276.452 506.688 276.992 506.688 277.607C506.688 278.234 506.755 278.782 506.888 279.249C507.035 279.703 507.235 280.084 507.489 280.391C507.743 280.684 508.036 280.911 508.37 281.072C508.704 281.218 509.071 281.292 509.472 281.292ZM509.472 271.958C510.153 271.958 510.807 272.072 511.435 272.299C512.062 272.526 512.616 272.873 513.097 273.34C513.591 273.794 513.985 274.375 514.279 275.083C514.573 275.791 514.719 276.632 514.719 277.607C514.719 278.581 514.573 279.423 514.279 280.13C513.985 280.838 513.591 281.425 513.097 281.893C512.616 282.347 512.062 282.687 511.435 282.914C510.807 283.128 510.153 283.235 509.472 283.235C508.791 283.235 508.137 283.128 507.509 282.914C506.881 282.687 506.321 282.347 505.827 281.893C505.346 281.425 504.959 280.838 504.665 280.13C504.371 279.423 504.224 278.581 504.224 277.607C504.224 276.632 504.371 275.791 504.665 275.083C504.959 274.375 505.346 273.794 505.827 273.34C506.321 272.873 506.881 272.526 507.509 272.299C508.137 272.072 508.791 271.958 509.472 271.958ZM519.064 273.701C519.372 273.14 519.799 272.713 520.346 272.419C520.907 272.112 521.568 271.958 522.329 271.958C522.983 271.958 523.538 272.059 523.992 272.259C524.459 272.459 524.839 272.746 525.133 273.12C525.427 273.494 525.641 273.941 525.774 274.462C525.921 274.983 525.994 275.564 525.994 276.205V282.974H523.611V276.785C523.611 276.425 523.591 276.071 523.551 275.724C523.511 275.377 523.417 275.07 523.271 274.803C523.137 274.522 522.93 274.302 522.65 274.142C522.383 273.981 522.022 273.901 521.568 273.901C521.114 273.901 520.727 273.988 520.406 274.162C520.086 274.322 519.826 274.549 519.625 274.843C519.425 275.136 519.278 275.49 519.185 275.904C519.105 276.318 519.064 276.765 519.064 277.246V282.974H516.681V272.199H519.064V273.701ZM535.566 268.453H537.949V282.974H535.566V281.552C535.245 282.086 534.811 282.5 534.264 282.794C533.716 283.088 533.082 283.235 532.361 283.235C531.707 283.235 531.093 283.108 530.518 282.854C529.958 282.587 529.47 282.207 529.056 281.713C528.642 281.218 528.315 280.624 528.075 279.93C527.848 279.236 527.734 278.455 527.734 277.587C527.734 276.732 527.848 275.958 528.075 275.263C528.315 274.569 528.642 273.975 529.056 273.481C529.47 272.987 529.958 272.613 530.518 272.359C531.093 272.092 531.707 271.958 532.361 271.958C533.082 271.958 533.716 272.105 534.264 272.399C534.811 272.693 535.245 273.107 535.566 273.641V268.453ZM535.666 277.587C535.666 276.972 535.592 276.432 535.445 275.964C535.299 275.497 535.098 275.116 534.845 274.823C534.604 274.515 534.311 274.288 533.963 274.142C533.63 273.981 533.269 273.901 532.882 273.901C532.041 273.901 531.386 274.235 530.919 274.903C530.452 275.557 530.218 276.452 530.218 277.587C530.218 278.735 530.452 279.643 530.919 280.311C531.386 280.965 532.041 281.292 532.882 281.292C533.269 281.292 533.63 281.218 533.963 281.072C534.311 280.911 534.604 280.678 534.845 280.371C535.098 280.063 535.299 279.683 535.445 279.229C535.592 278.762 535.666 278.214 535.666 277.587ZM547.311 277.907C546.456 277.987 545.729 278.081 545.128 278.187C544.527 278.294 544.033 278.428 543.646 278.588C543.259 278.748 542.971 278.942 542.785 279.169C542.611 279.383 542.524 279.643 542.524 279.95C542.524 280.417 542.704 280.785 543.065 281.052C543.425 281.319 543.906 281.452 544.507 281.452C545.388 281.452 546.076 281.212 546.57 280.731C547.064 280.237 547.311 279.423 547.311 278.288V277.907ZM545.048 271.878C545.715 271.878 546.33 271.958 546.89 272.119C547.465 272.279 547.959 272.539 548.373 272.9C548.787 273.26 549.1 273.734 549.314 274.322C549.541 274.909 549.648 275.63 549.634 276.485C549.634 276.619 549.628 276.799 549.614 277.026C549.614 277.239 549.614 277.473 549.614 277.727C549.614 277.98 549.608 278.248 549.594 278.528C549.594 278.795 549.594 279.049 549.594 279.289C549.594 279.97 549.621 280.644 549.674 281.312C549.728 281.966 549.808 282.52 549.915 282.974H547.732C547.692 282.747 547.652 282.527 547.611 282.313C547.585 282.1 547.558 281.806 547.531 281.432C547.198 282.033 546.724 282.487 546.109 282.794C545.495 283.088 544.787 283.235 543.986 283.235C543.399 283.235 542.858 283.155 542.364 282.994C541.883 282.848 541.463 282.634 541.102 282.353C540.755 282.073 540.481 281.739 540.281 281.352C540.094 280.951 540 280.504 540 280.01C540 279.342 540.194 278.788 540.581 278.348C540.969 277.907 541.489 277.547 542.144 277.266C542.811 276.986 543.579 276.772 544.447 276.625C545.328 276.478 546.263 276.351 547.251 276.245V275.984C547.251 275.53 547.191 275.156 547.071 274.863C546.951 274.556 546.784 274.315 546.57 274.142C546.37 273.955 546.129 273.828 545.849 273.761C545.569 273.681 545.261 273.641 544.928 273.641C544.313 273.641 543.799 273.801 543.385 274.122C542.971 274.442 542.751 274.929 542.724 275.584H540.381C540.421 275.036 540.561 274.536 540.802 274.082C541.042 273.628 541.362 273.24 541.763 272.92C542.177 272.586 542.658 272.332 543.205 272.159C543.766 271.972 544.38 271.878 545.048 271.878ZM557.933 274.622C557.533 274.582 557.152 274.562 556.791 274.562C556.418 274.562 556.084 274.609 555.79 274.702C555.496 274.783 555.249 274.929 555.049 275.143C554.849 275.343 554.695 275.624 554.588 275.984C554.481 276.345 554.428 276.792 554.428 277.326V282.974H552.045V272.199H554.388V274.122C554.682 273.521 555.076 273.053 555.57 272.72C556.077 272.372 556.658 272.192 557.312 272.179C557.406 272.179 557.506 272.185 557.613 272.199C557.733 272.199 557.84 272.205 557.933 272.219V274.622ZM559.409 286.479V284.657H560.31C560.564 284.657 560.784 284.643 560.971 284.617C561.171 284.603 561.345 284.543 561.492 284.436C561.652 284.343 561.792 284.196 561.912 283.996C562.032 283.796 562.153 283.522 562.273 283.175L562.393 282.914L558.487 272.199H561.091L563.535 279.93L565.978 272.199H568.422L564.636 282.954C564.383 283.649 564.136 284.223 563.895 284.677C563.668 285.131 563.401 285.491 563.094 285.758C562.787 286.025 562.426 286.212 562.012 286.319C561.599 286.426 561.091 286.479 560.49 286.479H559.409ZM480.103 305.69L482.306 294.453H484.97L481.585 308.974H478.581L476.137 297.838L473.734 308.974H470.689L467.284 294.453H470.048L472.372 305.67L474.675 294.453H477.619L480.103 305.69ZM488.845 294.453V296.857H486.462V294.453H488.845ZM488.845 298.199V308.974H486.462V298.199H488.845ZM493.911 299.701C494.218 299.14 494.645 298.713 495.193 298.419C495.754 298.112 496.415 297.958 497.176 297.958C497.83 297.958 498.384 298.059 498.838 298.259C499.305 298.459 499.686 298.746 499.98 299.12C500.273 299.494 500.487 299.941 500.621 300.462C500.768 300.983 500.841 301.564 500.841 302.205V308.974H498.458V302.785C498.458 302.425 498.438 302.071 498.397 301.724C498.357 301.377 498.264 301.07 498.117 300.803C497.984 300.522 497.777 300.302 497.496 300.142C497.229 299.981 496.869 299.901 496.415 299.901C495.961 299.901 495.573 299.988 495.253 300.162C494.932 300.322 494.672 300.549 494.472 300.843C494.271 301.136 494.125 301.49 494.031 301.904C493.951 302.318 493.911 302.765 493.911 303.246V308.974H491.528V298.199H493.911V299.701ZM510.412 294.453H512.796V308.974H510.412V307.552C510.092 308.086 509.658 308.5 509.11 308.794C508.563 309.088 507.929 309.235 507.208 309.235C506.553 309.235 505.939 309.108 505.365 308.854C504.804 308.587 504.317 308.207 503.903 307.713C503.489 307.218 503.162 306.624 502.921 305.93C502.694 305.236 502.581 304.455 502.581 303.587C502.581 302.732 502.694 301.958 502.921 301.263C503.162 300.569 503.489 299.975 503.903 299.481C504.317 298.987 504.804 298.613 505.365 298.359C505.939 298.092 506.553 297.958 507.208 297.958C507.929 297.958 508.563 298.105 509.11 298.399C509.658 298.693 510.092 299.107 510.412 299.641V294.453ZM510.512 303.587C510.512 302.972 510.439 302.432 510.292 301.964C510.145 301.497 509.945 301.116 509.691 300.823C509.451 300.515 509.157 300.288 508.81 300.142C508.476 299.981 508.115 299.901 507.728 299.901C506.887 299.901 506.233 300.235 505.765 300.903C505.298 301.557 505.064 302.452 505.064 303.587C505.064 304.735 505.298 305.643 505.765 306.311C506.233 306.965 506.887 307.292 507.728 307.292C508.115 307.292 508.476 307.218 508.81 307.072C509.157 306.911 509.451 306.678 509.691 306.371C509.945 306.063 510.145 305.683 510.292 305.229C510.439 304.762 510.512 304.214 510.512 303.587ZM517.871 294.453V296.857H515.488V294.453H517.871ZM517.871 298.199V308.974H515.488V298.199H517.871ZM522.937 299.701C523.244 299.14 523.672 298.713 524.219 298.419C524.78 298.112 525.441 297.958 526.202 297.958C526.856 297.958 527.41 298.059 527.864 298.259C528.332 298.459 528.712 298.746 529.006 299.12C529.3 299.494 529.513 299.941 529.647 300.462C529.794 300.983 529.867 301.564 529.867 302.205V308.974H527.484V302.785C527.484 302.425 527.464 302.071 527.424 301.724C527.384 301.377 527.29 301.07 527.143 300.803C527.01 300.522 526.803 300.302 526.522 300.142C526.255 299.981 525.895 299.901 525.441 299.901C524.987 299.901 524.6 299.988 524.279 300.162C523.959 300.322 523.698 300.549 523.498 300.843C523.298 301.136 523.151 301.49 523.057 301.904C522.977 302.318 522.937 302.765 522.937 303.246V308.974H520.554V298.199H522.937V299.701ZM539.418 298.199H541.802V307.893C541.802 309.655 541.361 310.924 540.48 311.698C539.612 312.473 538.344 312.86 536.674 312.86C536.087 312.86 535.533 312.8 535.012 312.68C534.491 312.56 534.024 312.366 533.61 312.099C533.209 311.832 532.876 311.485 532.609 311.057C532.342 310.643 532.161 310.143 532.068 309.555H534.431C534.538 310.063 534.765 310.423 535.112 310.637C535.473 310.864 536.013 310.977 536.735 310.977C537.269 310.977 537.709 310.904 538.056 310.757C538.404 310.623 538.677 310.436 538.878 310.196C539.078 309.956 539.218 309.675 539.298 309.355C539.378 309.048 539.418 308.721 539.418 308.373V307.112C539.098 307.646 538.664 308.06 538.117 308.353C537.569 308.647 536.935 308.794 536.214 308.794C535.56 308.794 534.945 308.674 534.371 308.434C533.81 308.18 533.323 307.819 532.909 307.352C532.495 306.871 532.168 306.297 531.928 305.63C531.701 304.962 531.587 304.207 531.587 303.366C531.587 302.525 531.701 301.771 531.928 301.103C532.168 300.435 532.495 299.868 532.909 299.401C533.323 298.933 533.81 298.579 534.371 298.339C534.945 298.085 535.56 297.958 536.214 297.958C536.935 297.958 537.569 298.105 538.117 298.399C538.664 298.693 539.098 299.107 539.418 299.641V298.199ZM539.519 303.366C539.519 302.765 539.445 302.245 539.298 301.804C539.151 301.363 538.951 301.003 538.697 300.722C538.457 300.429 538.163 300.215 537.816 300.082C537.482 299.935 537.122 299.861 536.735 299.861C535.893 299.861 535.239 300.175 534.772 300.803C534.304 301.43 534.071 302.285 534.071 303.366C534.071 304.475 534.304 305.342 534.772 305.97C535.239 306.598 535.893 306.911 536.735 306.911C537.122 306.911 537.482 306.845 537.816 306.711C538.163 306.564 538.457 306.344 538.697 306.05C538.951 305.756 539.151 305.389 539.298 304.949C539.445 304.495 539.519 303.967 539.519 303.366ZM550.744 301.223C550.624 300.716 550.344 300.349 549.903 300.122C549.462 299.895 548.901 299.781 548.22 299.781C547.673 299.781 547.199 299.888 546.798 300.102C546.411 300.302 546.218 300.582 546.218 300.943C546.218 301.61 546.738 302.051 547.78 302.265L549.242 302.565C549.776 302.685 550.277 302.825 550.744 302.986C551.225 303.133 551.639 303.326 551.986 303.567C552.333 303.807 552.607 304.107 552.807 304.468C553.007 304.815 553.108 305.249 553.108 305.77C553.108 306.331 552.981 306.831 552.727 307.272C552.487 307.699 552.153 308.06 551.726 308.353C551.312 308.634 550.824 308.848 550.263 308.994C549.716 309.155 549.128 309.235 548.501 309.235C547.807 309.235 547.172 309.141 546.598 308.954C546.037 308.767 545.55 308.514 545.136 308.193C544.735 307.873 544.408 307.492 544.155 307.052C543.914 306.611 543.767 306.13 543.714 305.61H546.037C546.144 306.184 546.405 306.631 546.818 306.951C547.232 307.272 547.82 307.432 548.581 307.432C549.249 307.432 549.783 307.312 550.183 307.072C550.584 306.818 550.784 306.477 550.784 306.05C550.784 305.623 550.604 305.296 550.243 305.069C549.896 304.842 549.436 304.668 548.861 304.548L547.239 304.207C546.772 304.114 546.338 303.994 545.937 303.847C545.537 303.687 545.189 303.486 544.896 303.246C544.615 302.992 544.388 302.692 544.215 302.345C544.054 301.984 543.974 301.557 543.974 301.063C543.974 300.582 544.088 300.155 544.315 299.781C544.555 299.394 544.876 299.067 545.276 298.8C545.677 298.533 546.144 298.326 546.678 298.179C547.212 298.032 547.78 297.958 548.381 297.958C548.942 297.958 549.476 298.025 549.983 298.159C550.49 298.292 550.944 298.499 551.345 298.78C551.759 299.047 552.106 299.387 552.387 299.801C552.68 300.202 552.881 300.676 552.987 301.223H550.744Z" fill="#231F20"/>
<path d="M463.784 415.479L467.469 426.996L471.055 415.479H473.738L468.771 430H466.047L461.02 415.479H463.784ZM477.557 415.479H480.241L485.688 430H482.904L481.763 426.775H475.874L474.753 430H472.149L477.557 415.479ZM476.615 424.652H481.002L478.799 418.423L476.615 424.652ZM498.742 425.173C498.435 426.802 497.734 428.057 496.639 428.938C495.544 429.82 494.156 430.26 492.473 430.26C491.405 430.26 490.457 430.08 489.629 429.72C488.801 429.359 488.1 428.852 487.526 428.197C486.952 427.53 486.511 426.729 486.204 425.794C485.91 424.859 485.763 423.824 485.763 422.689C485.763 421.554 485.917 420.526 486.224 419.605C486.545 418.684 486.999 417.896 487.586 417.242C488.187 416.587 488.908 416.087 489.749 415.739C490.59 415.392 491.538 415.219 492.593 415.219C494.209 415.219 495.558 415.659 496.639 416.541C497.721 417.422 498.408 418.677 498.702 420.306H496.259C496.032 419.318 495.584 418.57 494.917 418.063C494.262 417.555 493.461 417.302 492.513 417.302C491.939 417.302 491.398 417.422 490.891 417.662C490.397 417.889 489.963 418.23 489.589 418.684C489.215 419.138 488.921 419.698 488.708 420.366C488.494 421.034 488.387 421.808 488.387 422.689C488.387 423.571 488.487 424.352 488.688 425.033C488.901 425.714 489.195 426.288 489.569 426.755C489.943 427.223 490.377 427.576 490.871 427.817C491.365 428.057 491.906 428.177 492.493 428.177C493.481 428.177 494.302 427.93 494.957 427.436C495.624 426.929 496.072 426.174 496.299 425.173H498.742ZM507.536 422.73C507.536 423.611 507.643 424.392 507.856 425.073C508.083 425.754 508.391 426.328 508.778 426.795C509.178 427.249 509.639 427.597 510.16 427.837C510.68 428.064 511.241 428.177 511.842 428.177C512.443 428.177 513.004 428.064 513.525 427.837C514.045 427.597 514.499 427.249 514.887 426.795C515.287 426.328 515.594 425.754 515.808 425.073C516.035 424.392 516.148 423.611 516.148 422.73C516.148 421.848 516.035 421.074 515.808 420.406C515.594 419.725 515.287 419.158 514.887 418.704C514.499 418.236 514.045 417.889 513.525 417.662C513.004 417.422 512.443 417.302 511.842 417.302C511.241 417.302 510.68 417.422 510.16 417.662C509.639 417.889 509.178 418.236 508.778 418.704C508.391 419.158 508.083 419.725 507.856 420.406C507.643 421.074 507.536 421.848 507.536 422.73ZM518.772 422.73C518.772 423.851 518.612 424.873 518.291 425.794C517.971 426.715 517.51 427.51 516.909 428.177C516.309 428.832 515.581 429.346 514.726 429.72C513.872 430.08 512.91 430.26 511.842 430.26C510.774 430.26 509.813 430.08 508.958 429.72C508.103 429.346 507.376 428.832 506.775 428.177C506.174 427.51 505.713 426.715 505.393 425.794C505.072 424.873 504.912 423.851 504.912 422.73C504.912 421.608 505.072 420.586 505.393 419.665C505.713 418.744 506.174 417.956 506.775 417.302C507.376 416.634 508.103 416.12 508.958 415.759C509.813 415.399 510.774 415.219 511.842 415.219C512.91 415.219 513.872 415.399 514.726 415.759C515.581 416.12 516.309 416.634 516.909 417.302C517.51 417.956 517.971 418.744 518.291 419.665C518.612 420.586 518.772 421.608 518.772 422.73ZM527.611 428.518C527.304 429.079 526.877 429.513 526.33 429.82C525.795 430.113 525.161 430.26 524.427 430.26C523.786 430.26 523.238 430.16 522.784 429.96C522.33 429.76 521.957 429.473 521.663 429.099C521.369 428.725 521.155 428.278 521.022 427.757C520.888 427.236 520.822 426.655 520.822 426.014V419.224H523.205V425.433C523.205 425.794 523.225 426.148 523.265 426.495C523.305 426.842 523.392 427.156 523.525 427.436C523.659 427.703 523.859 427.917 524.126 428.077C524.393 428.237 524.747 428.318 525.188 428.318C525.628 428.318 526.002 428.237 526.309 428.077C526.63 427.904 526.884 427.67 527.071 427.376C527.258 427.082 527.391 426.729 527.471 426.315C527.565 425.901 527.611 425.453 527.611 424.973V419.224H529.995V430H527.611V428.518ZM533.018 416.38H535.402V419.224H537.565V420.947H535.402V426.815C535.402 427.363 535.489 427.73 535.662 427.917C535.836 428.091 536.176 428.177 536.684 428.177H537.545V430H535.782C535.208 430 534.741 429.96 534.38 429.88C534.02 429.786 533.739 429.633 533.539 429.419C533.339 429.206 533.199 428.918 533.119 428.558C533.052 428.184 533.018 427.723 533.018 427.176V420.947H531.416V419.224H533.018V416.38ZM541.768 424.612C541.768 425.24 541.835 425.787 541.968 426.255C542.115 426.709 542.315 427.089 542.569 427.396C542.823 427.703 543.117 427.937 543.45 428.097C543.797 428.244 544.165 428.318 544.552 428.318C545.393 428.318 546.047 427.99 546.515 427.336C546.982 426.669 547.216 425.761 547.216 424.612C547.216 423.477 546.982 422.583 546.515 421.928C546.047 421.261 545.393 420.927 544.552 420.927C544.165 420.927 543.797 421.007 543.45 421.167C543.117 421.314 542.823 421.541 542.569 421.848C542.315 422.142 542.115 422.523 541.968 422.99C541.835 423.457 541.768 423.998 541.768 424.612ZM541.868 419.224V420.667C542.188 420.132 542.622 419.718 543.17 419.425C543.717 419.131 544.352 418.984 545.073 418.984C545.727 418.984 546.334 419.118 546.895 419.385C547.469 419.638 547.964 420.012 548.377 420.506C548.791 421 549.112 421.595 549.339 422.289C549.579 422.983 549.699 423.758 549.699 424.612C549.699 425.48 549.579 426.261 549.339 426.956C549.112 427.65 548.791 428.244 548.377 428.738C547.964 429.232 547.469 429.613 546.895 429.88C546.334 430.134 545.727 430.26 545.073 430.26C544.352 430.26 543.717 430.113 543.17 429.82C542.622 429.526 542.188 429.112 541.868 428.578V433.505H539.485V419.224H541.868ZM558.3 428.518C557.993 429.079 557.566 429.513 557.018 429.82C556.484 430.113 555.85 430.26 555.116 430.26C554.475 430.26 553.927 430.16 553.473 429.96C553.019 429.76 552.645 429.473 552.352 429.099C552.058 428.725 551.844 428.278 551.711 427.757C551.577 427.236 551.51 426.655 551.51 426.014V419.224H553.894V425.433C553.894 425.794 553.914 426.148 553.954 426.495C553.994 426.842 554.081 427.156 554.214 427.436C554.348 427.703 554.548 427.917 554.815 428.077C555.082 428.237 555.436 428.318 555.877 428.318C556.317 428.318 556.691 428.237 556.998 428.077C557.319 427.904 557.572 427.67 557.759 427.376C557.946 427.082 558.08 426.729 558.16 426.315C558.253 425.901 558.3 425.453 558.3 424.973V419.224H560.684V430H558.3V428.518ZM563.707 416.38H566.091V419.224H568.254V420.947H566.091V426.815C566.091 427.363 566.177 427.73 566.351 427.917C566.525 428.091 566.865 428.177 567.373 428.177H568.234V430H566.471C565.897 430 565.43 429.96 565.069 429.88C564.709 429.786 564.428 429.633 564.228 429.419C564.028 429.206 563.887 428.918 563.807 428.558C563.741 428.184 563.707 427.723 563.707 427.176V420.947H562.105V419.224H563.707V416.38Z" fill="#231F20"/>
<circle cx="541.804" cy="484.486" r="8.32428" transform="rotate(180 541.804 484.486)" stroke="#F65E1E" stroke-width="2.04905" stroke-linejoin="round"/>
<path d="M419.499 484.358H532.453" stroke="#F65E1E" stroke-width="2.04905" stroke-linecap="square" stroke-linejoin="round"/>
<path d="M163.884 341.181H50.9297" stroke="#F65E1E" stroke-width="2.04905" stroke-linecap="square" stroke-linejoin="round"/>
<circle cx="41.5793" cy="341.053" r="8.32428" stroke="#F65E1E" stroke-width="2.04905" stroke-linejoin="round"/>
<circle cx="41.5793" cy="494.732" r="8.32428" stroke="#F65E1E" stroke-width="2.04905" stroke-linejoin="round"/>
<g filter="url(#filter0_d_434_10115)">
<path d="M164.906 295.717L182.964 277.66H437.43V531.999L419.373 550.056H164.906V295.717Z" fill="#F9F8F6"/>
<path d="M164.906 295.717L182.964 277.66H437.43M164.906 295.717V550.056H419.373M164.906 295.717H419.373M437.43 277.66V531.999L419.373 550.056M437.43 277.66L419.373 295.717M419.373 550.056V295.717M219.847 332.728V495.116H220.103M219.847 332.728H382.49V495.116M219.847 332.728H202.173V513.045M382.49 495.116V513.045H202.173M382.49 495.116H220.103M202.173 513.045L220.103 495.116" stroke="black" stroke-width="1.28066" stroke-linecap="round"/>
</g>
<path d="M219.938 494.828V332.784H382.457V494.828H219.938Z" fill="white" stroke="black" stroke-width="0.950408" stroke-linecap="round"/>
<path d="M219.934 495.303L202.352 512.886H382.454V495.303H219.934Z" fill="#E5E4E2" stroke="black" stroke-width="0.950408"/>
<path d="M219.934 332.784H202.352V512.411L219.934 494.828V332.784Z" fill="#C7C6C4" stroke="black" stroke-width="0.950408"/>
<path d="M163.754 360.391H203.07L222.28 341.181H221.255" stroke="#F65E1E" stroke-width="2.04905" stroke-linecap="round" stroke-linejoin="round"/>
<path d="M163.754 366.794H203.07L222.28 347.584H221.255" stroke="#F65E1E" stroke-width="2.04905" stroke-linecap="round" stroke-linejoin="round"/>
<path d="M163.754 373.197H203.07L222.28 353.987H221.255" stroke="#F65E1E" stroke-width="2.04905" stroke-linecap="round" stroke-linejoin="round"/>
<path d="M163.754 379.601H203.07L222.28 360.391H221.255" stroke="#F65E1E" stroke-width="2.04905" stroke-linecap="round" stroke-linejoin="round"/>
<path d="M163.754 386.004H203.07L222.28 366.794H221.255" stroke="#F65E1E" stroke-width="2.04905" stroke-linecap="round" stroke-linejoin="round"/>
<path d="M163.754 392.407H203.07L222.28 373.197H221.255" stroke="#F65E1E" stroke-width="2.04905" stroke-linecap="round" stroke-linejoin="round"/>
<path d="M163.754 398.81H203.07L222.28 379.601H221.255" stroke="#F65E1E" stroke-width="2.04905" stroke-linecap="round" stroke-linejoin="round"/>
<path d="M163.754 405.214H203.07L222.28 386.004H221.255" stroke="#F65E1E" stroke-width="2.04905" stroke-linecap="round" stroke-linejoin="round"/>
<path d="M163.754 411.617H203.07L222.28 392.407H221.255" stroke="#F65E1E" stroke-width="2.04905" stroke-linecap="round" stroke-linejoin="round"/>
<path d="M163.754 418.02H203.07L222.28 398.811H221.255" stroke="#F65E1E" stroke-width="2.04905" stroke-linecap="round" stroke-linejoin="round"/>
<path d="M163.754 424.424H203.07L222.28 405.214H221.255" stroke="#F65E1E" stroke-width="2.04905" stroke-linecap="round" stroke-linejoin="round"/>
<path d="M163.754 430.827H203.07L222.28 411.617H221.255" stroke="#F65E1E" stroke-width="2.04905" stroke-linecap="round" stroke-linejoin="round"/>
<path d="M163.754 437.23H203.07L222.28 418.02H221.255" stroke="#F65E1E" stroke-width="2.04905" stroke-linecap="round" stroke-linejoin="round"/>
<path d="M163.754 443.633H203.07L222.28 424.423H221.255" stroke="#F65E1E" stroke-width="2.04905" stroke-linecap="round" stroke-linejoin="round"/>
<path d="M163.754 450.036H203.07L222.28 430.826H221.255" stroke="#F65E1E" stroke-width="2.04905" stroke-linecap="round" stroke-linejoin="round"/>
<path d="M163.754 456.44H203.07L222.28 437.23H221.255" stroke="#F65E1E" stroke-width="2.04905" stroke-linecap="round" stroke-linejoin="round"/>
<path d="M163.754 462.843H203.07L222.28 443.633H221.255" stroke="#F65E1E" stroke-width="2.04905" stroke-linecap="round" stroke-linejoin="round"/>
<path d="M163.754 469.246H203.07L222.28 450.037H221.255" stroke="#F65E1E" stroke-width="2.04905" stroke-linecap="round" stroke-linejoin="round"/>
<path d="M163.754 475.65H203.07L222.28 456.44H221.255" stroke="#F65E1E" stroke-width="2.04905" stroke-linecap="round" stroke-linejoin="round"/>
<path d="M163.754 482.053H203.07L222.28 462.843H221.255" stroke="#F65E1E" stroke-width="2.04905" stroke-linecap="round" stroke-linejoin="round"/>
<path d="M163.754 488.456H203.07L222.28 469.247H221.255" stroke="#F65E1E" stroke-width="2.04905" stroke-linecap="round" stroke-linejoin="round"/>
<path d="M51.1836 494.86H203.07L222.28 475.65H221.255" stroke="#F65E1E" stroke-width="2.04905" stroke-linecap="round" stroke-linejoin="round"/>
<path d="M420.91 356.292H381.594" stroke="#F65E1E" stroke-width="2.04905" stroke-linecap="round" stroke-linejoin="round"/>
<path d="M381.594 369.099H420.91L440.12 349.889H439.095" stroke="#F65E1E" stroke-width="2.04905" stroke-linecap="round" stroke-linejoin="round"/>
<path d="M381.594 381.905H420.91L440.12 362.696H439.095" stroke="#F65E1E" stroke-width="2.04905" stroke-linecap="round" stroke-linejoin="round"/>
<path d="M381.594 394.713H420.91L440.12 375.503H439.095" stroke="#F65E1E" stroke-width="2.04905" stroke-linecap="round" stroke-linejoin="round"/>
<path d="M381.594 407.519H420.91L440.12 388.309H439.095" stroke="#F65E1E" stroke-width="2.04905" stroke-linecap="round" stroke-linejoin="round"/>
<path d="M381.594 420.325H420.91L440.12 401.115H439.095" stroke="#F65E1E" stroke-width="2.04905" stroke-linecap="round" stroke-linejoin="round"/>
<path d="M381.594 433.132H420.91L440.12 413.922H439.095" stroke="#F65E1E" stroke-width="2.04905" stroke-linecap="round" stroke-linejoin="round"/>
<path d="M381.594 445.938H420.91L440.12 426.729H439.095" stroke="#F65E1E" stroke-width="2.04905" stroke-linecap="round" stroke-linejoin="round"/>
<path d="M381.594 458.745H420.91L440.12 439.535H439.095" stroke="#F65E1E" stroke-width="2.04905" stroke-linecap="round" stroke-linejoin="round"/>
<path d="M381.594 471.552H420.91L440.12 452.342H439.095" stroke="#F65E1E" stroke-width="2.04905" stroke-linecap="round" stroke-linejoin="round"/>
<path d="M381.594 484.358H420.91L440.12 465.148H439.095" stroke="#F65E1E" stroke-width="2.04905" stroke-linecap="round" stroke-linejoin="round"/>
<path d="M419.499 356.293H532.453" stroke="#F65E1E" stroke-width="2.04905" stroke-linecap="square" stroke-linejoin="round"/>
<circle cx="541.804" cy="356.42" r="8.32428" transform="rotate(180 541.804 356.42)" stroke="#F65E1E" stroke-width="2.04905" stroke-linejoin="round"/>
<defs>
<filter id="filter0_d_434_10115" x="104.001" y="252.914" width="394.333" height="394.205" filterUnits="userSpaceOnUse" color-interpolation-filters="sRGB">
<feFlood flood-opacity="0" result="BackgroundImageFix"/>
<feColorMatrix in="SourceAlpha" type="matrix" values="0 0 0 0 0 0 0 0 0 0 0 0 0 0 0 0 0 0 127 0" result="hardAlpha"/>
<feOffset dy="36.1586"/>
<feGaussianBlur stdDeviation="30.1322"/>
<feComposite in2="hardAlpha" operator="out"/>
<feColorMatrix type="matrix" values="0 0 0 0 0 0 0 0 0 0 0 0 0 0 0 0 0 0 0.15 0"/>
<feBlend mode="normal" in2="BackgroundImageFix" result="effect1_dropShadow_434_10115"/>
<feBlend mode="normal" in="SourceGraphic" in2="effect1_dropShadow_434_10115" result="shape"/>
</filter>
</defs>
</svg>
