<svg xmlns="http://www.w3.org/2000/svg" xmlns:xlink="http://www.w3.org/1999/xlink" viewBox="0 0 80 80"><path fill="#f7a8a8" d="M6,71.5c-1.93,0-3.5-1.57-3.5-3.5c0-0.652,0.203-1.303,0.62-1.991l33.71-55.5 C37.605,9.232,38.761,8.5,40,8.5s2.395,0.732,3.17,2.01l33.71,55.5c0.417,0.687,0.62,1.338,0.62,1.99c0,1.93-1.57,3.5-3.5,3.5H6z"/><path fill="#c74343" d="M40,9c1.452,0,2.342,1.108,2.743,1.769l16.855,27.75l16.855,27.75C76.821,66.875,77,67.441,77,68 c0,1.654-1.346,3-3,3H6c-1.654,0-3-1.346-3-3c0-0.559,0.179-1.125,0.547-1.731l16.855-27.75l16.855-27.75 C37.658,10.108,38.548,9,40,9 M40,8c-1.581,0-2.829,0.983-3.598,2.25c-33.71,55.5,0,0-33.71,55.5C2.29,66.413,2,67.166,2,68 c0,2.209,1.791,4,4,4c1.749,0,66.121,0,68,0c2.209,0,4-1.791,4-4c0-0.834-0.29-1.587-0.692-2.25c-33.71-55.5,0,0-33.71-55.5 C42.829,8.983,41.581,8,40,8L40,8z"/><path fill="#36404d" d="M40 56A4 4 0 1 0 40 64 4 4 0 1 0 40 56zM40 28c-2.209 0-4 1.653-4 3.692 0 1.363 2.005 18.61 2.014 18.683C38.133 51.29 38.976 52 40 52s1.867-.71 1.986-1.625C41.995 50.302 44 33.056 44 31.692 44 29.653 42.209 28 40 28z"/><path fill="#c74343" d="M65.902 35.414L76.812 34.113 76.242 33.174 65.332 34.475 65.581 34.885zM69.578 22.203L69.058 21.348 60.302 26.193 60.821 27.049zM55.823 18.819L62.443 10.456 61.89 9.545 55.269 17.908zM24.731 17.908L18.11 9.545 17.557 10.456 24.177 18.819zM14.419 34.885L14.668 34.475 3.758 33.174 3.188 34.113 14.098 35.414zM19.179 27.049L19.698 26.193 10.942 21.348 10.422 22.203z"/></svg>