<svg xmlns="http://www.w3.org/2000/svg" xmlns:xlink="http://www.w3.org/1999/xlink" width="40" height="40" viewBox="0 0 40 40"><path fill="#e1ebf2" d="M37.5,17.078V5.15c0-0.911-0.705-1.65-1.575-1.65H4.075C3.205,3.5,2.5,4.239,2.5,5.15v11.928 c-1.141,0.232-2,1.24-2,2.45l0,0c0,1.209,0.859,2.218,2,2.45V34.85c0,0.911,0.705,1.65,1.575,1.65h31.85 c0.87,0,1.575-0.739,1.575-1.65V21.977c1.141-0.232,2-1.24,2-2.45l0,0C39.5,18.318,38.641,17.31,37.5,17.078z"/><path fill="#66798f" d="M35.925,37H4.075C2.931,37,2,36.035,2,34.85V22.356c-1.18-0.417-2-1.548-2-2.828 c0-1.281,0.82-2.412,2-2.829V5.15C2,3.965,2.931,3,4.075,3h31.85C37.069,3,38,3.965,38,5.15v11.549c1.18,0.417,2,1.548,2,2.828 c0,1.281-0.82,2.412-2,2.829V34.85C38,36.035,37.069,37,35.925,37z M4.075,4C3.482,4,3,4.516,3,5.15v11.928 c0,0.238-0.167,0.442-0.4,0.49C1.673,17.756,1,18.58,1,19.527c0,0.948,0.673,1.772,1.6,1.96c0.233,0.048,0.4,0.252,0.4,0.49 V34.85C3,35.484,3.482,36,4.075,36h31.85C36.518,36,37,35.484,37,34.85V21.978c0-0.238,0.167-0.442,0.4-0.49 c0.927-0.188,1.6-1.012,1.6-1.959c0-0.948-0.673-1.772-1.6-1.96c-0.233-0.048-0.4-0.252-0.4-0.49V5.15 C37,4.516,36.518,4,35.925,4H4.075z"/><path fill="#66798f" d="M29.379,26.5H10.621C9.45,26.5,8.5,27.45,8.5,28.621V36.5h23v-7.879 C31.5,27.45,30.55,26.5,29.379,26.5z"/><path fill="#36404d" d="M32,37H8v-8.379C8,27.176,9.176,26,10.621,26h18.758C30.824,26,32,27.176,32,28.621V37z M9,36h22 v-7.379C31,27.728,30.273,27,29.379,27H10.621C9.727,27,9,27.728,9,28.621V36z"/><path fill="#bae0bd" d="M8.5,6.5h23v6h-23V6.5z"/><path fill="#5e9c76" d="M32,13H8V6h24V13z M9,12h22V7H9V12z"/><path fill="#b0c1d4" d="M28.5,15.5c-2.209,0-4,1.791-4,4s1.791,4,4,4s4-1.791,4-4S30.709,15.5,28.5,15.5z"/><path fill="#66798f" d="M28.5,24c-2.481,0-4.5-2.019-4.5-4.5s2.019-4.5,4.5-4.5s4.5,2.019,4.5,4.5S30.981,24,28.5,24z M28.5,16c-1.93,0-3.5,1.57-3.5,3.5s1.57,3.5,3.5,3.5s3.5-1.57,3.5-3.5S30.43,16,28.5,16z"/><path fill="#f78f8f" d="M20.5,18.192c-0.722,0-1.308,0.585-1.308,1.308s0.585,1.308,1.308,1.308s1.308-0.585,1.308-1.308 S21.222,18.192,20.5,18.192z"/><path fill="#c74343" d="M20.5,21.308c-0.997,0-1.808-0.811-1.808-1.808s0.811-1.808,1.808-1.808s1.808,0.811,1.808,1.808 S21.497,21.308,20.5,21.308z M20.5,18.692c-0.445,0-0.808,0.362-0.808,0.808s0.362,0.808,0.808,0.808s0.808-0.362,0.808-0.808 S20.945,18.692,20.5,18.692z"/><path fill="#f78f8f" d="M15.5,18.192c-0.722,0-1.308,0.585-1.308,1.308s0.585,1.308,1.308,1.308s1.308-0.585,1.308-1.308 S16.222,18.192,15.5,18.192z"/><path fill="#c74343" d="M15.5,21.308c-0.997,0-1.808-0.811-1.808-1.808s0.811-1.808,1.808-1.808s1.808,0.811,1.808,1.808 S16.497,21.308,15.5,21.308z M15.5,18.692c-0.445,0-0.808,0.362-0.808,0.808s0.362,0.808,0.808,0.808s0.808-0.362,0.808-0.808 S15.945,18.692,15.5,18.692z"/><path fill="#bae0bd" d="M10.5,18.192c-0.722,0-1.308,0.585-1.308,1.308s0.585,1.308,1.308,1.308s1.308-0.585,1.308-1.308 S11.222,18.192,10.5,18.192z"/><path fill="#5e9c76" d="M10.5,21.308c-0.997,0-1.808-0.811-1.808-1.808s0.811-1.808,1.808-1.808s1.808,0.811,1.808,1.808 S11.497,21.308,10.5,21.308z M10.5,18.692c-0.445,0-0.808,0.362-0.808,0.808s0.362,0.808,0.808,0.808s0.808-0.362,0.808-0.808 S10.945,18.692,10.5,18.692z"/><path fill="#788b9c" d="M36.163,19.478c0,0.414,0.336,0.75,0.75,0.75s0.75-0.336,0.75-0.75s-0.336-0.75-0.75-0.75C36.499,18.728,36.163,19.064,36.163,19.478z"/><path fill="#788b9c" d="M2.337,19.478c0,0.414,0.336,0.75,0.75,0.75s0.75-0.336,0.75-0.75s-0.336-0.75-0.75-0.75S2.337,19.064,2.337,19.478z"/><path fill="#5e9c76" d="M10,8h2v3h-2V8z"/><path fill="#5e9c76" d="M14.001,8h2v3h-2C14.001,11,14.001,8,14.001,8z"/><path fill="#5e9c76" d="M18,8h2v3h-2V8z"/><path fill="#ffeea3" d="M12,34.5L12,34.5c-0.828,0-1.5-0.672-1.5-1.5v-3c0-0.828,0.672-1.5,1.5-1.5l0,0 c0.828,0,1.5,0.672,1.5,1.5v3C13.5,33.828,12.828,34.5,12,34.5z"/><path fill="#ba9b48" d="M12,35c-1.103,0-2-0.897-2-2v-3c0-1.103,0.897-2,2-2s2,0.897,2,2v3C14,34.103,13.103,35,12,35z M12,29c-0.551,0-1,0.448-1,1v3c0,0.552,0.449,1,1,1s1-0.448,1-1v-3C13,29.448,12.551,29,12,29z"/><circle cx="12" cy="30.231" r=".5" fill="#967a44"/><circle cx="12" cy="32.731" r=".5" fill="#967a44"/><path fill="#ffeea3" d="M17,34.5L17,34.5c-0.828,0-1.5-0.672-1.5-1.5v-3c0-0.828,0.672-1.5,1.5-1.5l0,0 c0.828,0,1.5,0.672,1.5,1.5v3C18.5,33.828,17.828,34.5,17,34.5z"/><path fill="#ba9b48" d="M17,35c-1.103,0-2-0.897-2-2v-3c0-1.103,0.897-2,2-2s2,0.897,2,2v3C19,34.103,18.103,35,17,35z M17,29c-0.551,0-1,0.448-1,1v3c0,0.552,0.449,1,1,1s1-0.448,1-1v-3C18,29.448,17.551,29,17,29z"/><circle cx="17" cy="30.231" r=".5" fill="#967a44"/><circle cx="17" cy="32.731" r=".5" fill="#967a44"/><g><path fill="#ffeea3" d="M23,34.5L23,34.5c-0.828,0-1.5-0.672-1.5-1.5v-3c0-0.828,0.672-1.5,1.5-1.5l0,0 c0.828,0,1.5,0.672,1.5,1.5v3C24.5,33.828,23.828,34.5,23,34.5z"/><path fill="#ba9b48" d="M23,35c-1.103,0-2-0.897-2-2v-3c0-1.103,0.897-2,2-2s2,0.897,2,2v3C25,34.103,24.103,35,23,35z M23,29c-0.551,0-1,0.448-1,1v3c0,0.552,0.449,1,1,1s1-0.448,1-1v-3C24,29.448,23.551,29,23,29z"/></g><circle cx="23" cy="30.231" r=".5" fill="#967a44"/><circle cx="23" cy="32.731" r=".5" fill="#967a44"/><g><path fill="#ffeea3" d="M28,34.5L28,34.5c-0.828,0-1.5-0.672-1.5-1.5v-3c0-0.828,0.672-1.5,1.5-1.5l0,0 c0.828,0,1.5,0.672,1.5,1.5v3C29.5,33.828,28.828,34.5,28,34.5z"/><path fill="#ba9b48" d="M28,35c-1.103,0-2-0.897-2-2v-3c0-1.103,0.897-2,2-2s2,0.897,2,2v3C30,34.103,29.103,35,28,35z M28,29c-0.551,0-1,0.448-1,1v3c0,0.552,0.449,1,1,1s1-0.448,1-1v-3C29,29.448,28.551,29,28,29z"/></g><circle cx="28" cy="30.231" r=".5" fill="#967a44"/><circle cx="28" cy="32.731" r=".5" fill="#967a44"/></svg>