<svg xmlns="http://www.w3.org/2000/svg" xmlns:xlink="http://www.w3.org/1999/xlink" viewBox="0 0 80 80"><path fill="#f78f8f" d="M38.707 50L50 38.707 76.793 65.5 65.5 65.5 65.5 76.793z"/><path fill="#c74343" d="M50,39.414L75.586,65H66h-1v1v9.586L39.414,50L50,39.414 M50,38L38,50l28,28V66h12L50,38L50,38z"/><path fill="#f78f8f" d="M14.5 65.5L3.207 65.5 30 38.707 41.293 50 14.5 76.793z"/><path fill="#c74343" d="M30,39.414L40.586,50L15,75.586V66v-1h-1H4.414L30,39.414 M30,38L2,66h12v12l28-28L30,38L30,38z"/><path fill="#ffeea3" d="M40,61.5c-16.267,0-29.5-13.233-29.5-29.5S23.733,2.5,40,2.5S69.5,15.733,69.5,32 S56.267,61.5,40,61.5z"/><path fill="#ba9b48" d="M40,3c15.991,0,29,13.009,29,29S55.991,61,40,61S11,47.991,11,32S24.009,3,40,3 M40,2 C23.431,2,10,15.431,10,32s13.431,30,30,30s30-13.431,30-30S56.569,2,40,2L40,2z"/><path fill="#f5ce85" d="M40 10A22 22 0 1 0 40 54A22 22 0 1 0 40 10Z"/><path fill="#967a44" d="M42.727,21.091v21.818h-3.773V26.105c-0.683,0.488-2.122,1.05-4.895,1.751v-3.22c3.77-1.208,6.456-3.101,7.074-3.545H42.727z"/></svg>