<svg xmlns="http://www.w3.org/2000/svg" xmlns:xlink="http://www.w3.org/1999/xlink" width="40" height="40" viewBox="0 0 40 40"><path fill="#f78f8f" d="M31.292,26.5h-7.573c-0.674,0-1.341-0.614-1.219-1.277c0.469-2.539,0.541-5.082-0.114-7.629l8.906,0 V26.5z"/><path fill="#c74343" d="M31.792,27h-8.073c-0.517,0-1.028-0.244-1.369-0.653c-0.298-0.358-0.419-0.79-0.342-1.214 c0.507-2.741,0.472-5.167-0.106-7.414l-0.16-0.625h10.051V27z M23.017,18.094c0.471,2.213,0.462,4.583-0.025,7.221 c-0.029,0.162,0.053,0.303,0.127,0.392C23.267,25.885,23.503,26,23.719,26h7.073v-7.906H23.017z"/><path fill="#36404d" d="M17.734,12H0.5C0.224,12,0,11.776,0,11.5S0.224,11,0.5,11h17.234c0.276,0,0.5,0.224,0.5,0.5 S18.011,12,17.734,12z"/><rect width="3.327" height="10" x="12.5" y="6.5" fill="#c5d4de"/><path fill="#66798f" d="M16.327,17H12V6h4.327V17z M13,16h2.327V7H13V16z"/><polygon fill="#e1ebf2" points="2.5,13.605 5.031,16.5 6.942,16.496 6.942,6.5 5.031,6.504 2.5,9.395"/><path fill="#66798f" d="M4.805,17L2,13.793V9.207l2.804-3.203l2.652,0.009L7.441,16.995L4.805,17z M3,13.418L5.258,16 l1.184-0.003V7.001L5.259,7.004L3,9.582V13.418z"/><path fill="#bae0bd" d="M39.5,34.5c0-15.839-5.593-20.806-7-23.433V8.109c0-0.888-0.719-1.609-1.607-1.609H14.5v14h12v14 L39.5,34.5z"/><path fill="#5e9c76" d="M40,35H26V21H14V6h16.894C32.055,6,33,6.946,33,8.108v2.829c0.216,0.382,0.531,0.835,0.891,1.352 C36.025,15.363,40,21.086,40,34.5V35z M27,34h11.998c-0.097-12.743-3.883-18.194-5.929-21.14 c-0.412-0.593-0.767-1.104-1.01-1.558L32,11.192V8.108C32,7.497,31.504,7,30.894,7H15v13h12V34z"/><circle cx="30.254" cy="8.746" r=".746" fill="#66798f"/><circle cx="31" cy="23" r="1.5" fill="#f78f8f"/><path fill="#c74343" d="M31,25c-1.103,0-2-0.897-2-2s0.897-2,2-2s2,0.897,2,2S32.103,25,31,25z M31,22c-0.552,0-1,0.448-1,1 s0.448,1,1,1s1-0.448,1-1S31.552,22,31,22z"/><circle cx="28.746" cy="32.254" r=".746" fill="#66798f"/><circle cx="37.254" cy="32.254" r=".746" fill="#66798f"/><rect width="5" height="9.996" x="5.5" y="6.5" fill="#c5d4de"/><path fill="#66798f" d="M11,16.996H5V6h6V16.996z M6,16.047l4-0.016V7H6V16.047z"/><g><path fill="#b0c1d4" d="M8.5,10.5h2v-2h-2c-0.552,0-1,0.448-1,1v0C7.5,10.052,7.948,10.5,8.5,10.5z"/><path fill="#66798f" d="M11,11H8.5C7.673,11,7,10.327,7,9.5S7.673,8,8.5,8H11V11z M8.5,9C8.225,9,8,9.225,8,9.5 S8.225,10,8.5,10H10V9H8.5z"/></g><g><path fill="#b0c1d4" d="M8.5,14.5h2v-2h-2c-0.552,0-1,0.448-1,1v0C7.5,14.052,7.948,14.5,8.5,14.5z"/><path fill="#66798f" d="M11,15H8.5C7.673,15,7,14.327,7,13.5S7.673,12,8.5,12H11V15z M8.5,13C8.225,13,8,13.225,8,13.5 S8.225,14,8.5,14H10v-1H8.5z"/></g><g><rect width="7.999" height="2" x="18.501" y="8.5" fill="#b0c1d4"/><path fill="#66798f" d="M27,11h-8.999V8H27V11z M18.97,10H26V9h-7.03V10z"/></g><g><rect width="7.999" height="2" x="18.5" y="12.5" fill="#b0c1d4"/><path fill="#66798f" d="M26.999,15H18v-3h8.999V15z M19,14h7.062v-1H19V14z"/></g><g><rect width="7.999" height="2" x="18.501" y="16.5" fill="#b0c1d4"/><path fill="#66798f" d="M27,19h-8.999v-3H27V19z M18.97,18H26v-1h-7.03V18z"/></g></svg>