<svg xmlns="http://www.w3.org/2000/svg" xmlns:xlink="http://www.w3.org/1999/xlink" viewBox="0 0 80 80"><path fill="#f76d6d" d="M40.5,51.49c6.306-0.244,11-5.102,11-11.49c0-6.295-4.4-10.851-11-11.462v-3.029 c7.639,0.274,14,6.799,14,14.491c0,8.234-5.857,14.256-14,14.493V51.49z"/><path fill="#ba3a3a" d="M41,26.037C48.144,26.57,54,32.747,54,40c0,7.775-5.408,13.507-13,13.97v-2.007 C47.338,51.487,52,46.504,52,40c0-6.425-4.38-11.113-11-11.912V26.037 M40,25v4c6.426,0.408,11,4.731,11,11s-4.731,11-11,11v4 c8.917,0,15-6.628,15-15C55,31.629,48.031,25,40,25L40,25z"/><path fill="#f7b7b7" d="M40.5,61.494c11.625-0.267,21-9.806,21-21.494s-9.375-21.228-21-21.494v-3.001 c13.279,0.268,24,11.153,24,24.495s-10.721,24.227-24,24.495V61.494z"/><path fill="#d46565" d="M41,16.021C53.771,16.547,64,27.102,64,40S53.771,63.453,41,63.979v-2.002 C52.668,61.453,62,51.795,62,40s-9.332-21.453-21-21.978V16.021 M40,15v4c11.492,0,21,9.508,21,21c0,11.492-9.508,21-21,21v4 c13.604,0,25-10.917,25-25C65,26.083,53.604,15,40,15L40,15z"/><path fill="#f78f8f" d="M26,47.5c-4.136,0-7.5-3.364-7.5-7.5s3.364-7.5,7.5-7.5s7.5,3.364,7.5,7.5S30.135,47.5,26,47.5z"/><path fill="#c74343" d="M26,33c3.86,0,7,3.14,7,7s-3.14,7-7,7s-7-3.14-7-7S22.14,33,26,33 M26,32c-4.418,0-8,3.582-8,8 s3.582,8,8,8s8-3.582,8-8S30.418,32,26,32L26,32z"/><g><path fill="#dcd5f2" d="M5.5,75.5v-71H19c3.584,0,6.5,2.916,6.5,6.5v58c0,3.584-2.916,6.5-6.5,6.5H5.5z"/><path fill="#8b75a1" d="M19,5c3.308,0,6,2.692,6,6v58c0,3.308-2.692,6-6,6H6V5H19 M19,4H5v72h14c3.866,0,7-3.134,7-7V11 C26,7.134,22.866,4,19,4L19,4z"/></g><g><path fill="#f7b7b7" d="M40.5,70.496c16.588-0.269,30-13.846,30-30.496S57.088,9.772,40.5,9.504v-3 c18.242,0.269,33,15.239,33,33.602c0,18.248-14.758,33.124-33,33.391V70.496z"/><path fill="#f08d8d" d="M41,7.015c17.736,0.532,32,15.171,32,33.09c0,8.835-3.424,17.111-9.642,23.302 C57.38,69.36,49.473,72.739,41,72.985v-2.001C57.632,70.454,71,56.759,71,40S57.632,9.546,41,9.016V7.015 M40,6v4 c16.716,0,30,13.859,30,30c0,16.086-13.284,30-30,30v4c18.836,0,34-15.059,34-33.895C74,21.27,58.836,6,40,6L40,6z"/></g></svg>