<svg xmlns="http://www.w3.org/2000/svg" xmlns:xlink="http://www.w3.org/1999/xlink" viewBox="0 0 80 80"><path fill="#788b9c" d="M62.1,72H42.6v-2h19.6c5.4,0,9.9-4.4,9.9-9.9V49.3h2v10.9C74,66.7,68.7,72,62.1,72z"/><path fill="#b6c9d6" d="M22,75.5c-3,0-5.5-2.5-5.5-5.5V55.2h31V70c0,3-2.5,5.5-5.5,5.5H22z"/><path fill="#788b9c" d="M47,55.7V70c0,2.8-2.2,5-5,5H22c-2.8,0-5-2.2-5-5V55.7H47 M48,54.7H16V70c0,3.3,2.7,6,6,6h20 c3.3,0,6-2.7,6-6V54.7L48,54.7z"/><path fill="#f78f8f" d="M32,63.5C15.7,63.5,2.5,50.3,2.5,34S15.7,4.5,32,4.5S61.5,17.7,61.5,34S48.3,63.5,32,63.5z"/><path fill="#c74343" d="M32,5c16,0,29,13,29,29S48,63,32,63S3,50,3,34S16,5,32,5 M32,4C15.4,4,2,17.4,2,34s13.4,30,30,30 s30-13.4,30-30S48.6,4,32,4L32,4z"/><path fill="#fff" d="M32,45.5c-6.3,0-11.5-5.2-11.5-11.5S25.7,22.5,32,22.5S43.5,27.7,43.5,34S38.3,45.5,32,45.5z"/><path fill="#788b9c" d="M32,23c6.1,0,11,4.9,11,11s-4.9,11-11,11s-11-4.9-11-11S25.9,23,32,23 M32,22c-6.6,0-12,5.4-12,12 s5.4,12,12,12s12-5.4,12-12S38.6,22,32,22L32,22z"/><g><path fill="#788b9c" d="M32 30A4 4 0 1 0 32 38A4 4 0 1 0 32 30Z"/></g><g><path fill="#b6c9d6" d="M73 44.5A4.5 4.5 0 1 0 73 53.5A4.5 4.5 0 1 0 73 44.5Z"/><path fill="#788b9c" d="M73,45c2.2,0,4,1.8,4,4s-1.8,4-4,4s-4-1.8-4-4S70.8,45,73,45 M73,44c-2.8,0-5,2.2-5,5s2.2,5,5,5 s5-2.2,5-5S75.8,44,73,44L73,44z"/></g></svg>