<svg xmlns="http://www.w3.org/2000/svg" xmlns:xlink="http://www.w3.org/1999/xlink" viewBox="0 0 80 80"><path fill="#f5ce85" d="M40,76.5c-2.656,0-5.213-1.134-7.016-3.111L32.9,73.296l-0.117-0.042 C24.24,70.21,18.5,62.07,18.5,53V23.763c0-5.506,4.479-9.985,9.985-9.985h23.03c5.506,0,9.984,4.479,9.984,9.985V53 c0,9.071-5.74,17.21-14.283,20.254L47.1,73.296l-0.084,0.092C45.213,75.366,42.656,76.5,40,76.5z"/><path fill="#967a44" d="M51.515,14.278c5.23,0,9.485,4.255,9.485,9.485V53c0,8.86-5.606,16.81-13.951,19.784l-0.235,0.084 l-0.168,0.185C44.939,74.925,42.516,76,40,76c-2.516,0-4.939-1.074-6.646-2.948l-0.168-0.185l-0.235-0.084 C24.607,69.81,19,61.86,19,53V23.762c0-5.23,4.255-9.485,9.485-9.485H51.515 M51.515,13.278h-23.03 C22.694,13.278,18,17.972,18,23.762V53c0,9.559,6.098,17.691,14.615,20.726C34.444,75.733,37.071,77,40,77 s5.556-1.267,7.385-3.274C55.902,70.691,62,62.559,62,53V23.762C62,17.972,57.306,13.278,51.515,13.278L51.515,13.278z"/><path fill="#a6714e" d="M64,75.5c-6.373,0-12.174-2.559-14.203-3.562C52.371,70.247,60.5,64.072,60.5,53.572v-7.809 c0-7.175-7.8-15.74-8.132-16.101l-0.428-0.465l-0.354,0.524c-0.054,0.079-5.49,7.897-19.154,9.785 C26.203,40.365,19.5,44.77,19.5,52.408v1.164c0,10.658,8.961,17.102,11.865,18.909C29.104,73.366,23.118,75.5,18,75.5 c-8.302,0-13.719-4.152-15.219-5.46C5.109,68.186,14.5,59.378,14.5,38c0-8.262,6.339-9.954,15.856-9.954 c2.422,0,4.931,0.108,7.586,0.222c2.656,0.115,5.403,0.233,8.058,0.233c2.337,0,4.601-0.187,6.599-0.353 c1.733-0.143,3.37-0.279,4.832-0.279c5.11,0,8.069,1.658,8.069,10.13c0,21.463,9.465,30.255,11.746,32.062 C75.917,71.367,71.144,75.5,64,75.5z"/><path fill="#7a4f34" d="M57.43,28.37c4.142,0,7.57,0.725,7.57,9.63c0,20.463,8.569,29.573,11.493,32.085 C74.805,71.621,70.367,75,64,75c-5.571,0-10.716-1.999-13.186-3.132C54.011,69.627,61,63.584,61,53.572v-7.809 c0-7.368-7.926-16.073-8.264-16.44l-0.585-0.636c0.164-0.014,0.327-0.027,0.488-0.04C54.362,28.504,55.99,28.37,57.43,28.37 M30.356,28.546c2.411,0,4.914,0.108,7.564,0.222c2.662,0.115,5.415,0.233,8.08,0.233c1.979,0,3.899-0.132,5.651-0.273 l-0.48,0.714c-0.052,0.077-5.33,7.707-18.807,9.568C25.927,39.898,19,44.47,19,52.408v0.119v1.045 c0,10.145,7.664,16.421,11.245,18.8C27.567,73.358,22.441,75,18,75c-7.452,0-12.53-3.418-14.44-4.96C6.532,67.465,15,58.342,15,38 c0-3.772,1.337-6.21,4.206-7.672C21.626,29.095,25.064,28.545,30.356,28.546 M57.43,27.37c-3.202,0-7.118,0.631-11.43,0.631 c-5.214,0-10.709-0.455-15.644-0.455C21.221,27.545,14,29.105,14,38C14,61.894,2,70,2,70s5.85,6,16,6 c6.607,0,14.491-3.437,14.491-3.437S20,66.069,20,53.572c0-0.888,0-1.045,0-1.045v0.046c0,0,0-0.035,0-0.165 C20,45.053,26.483,40.831,32.5,40C46.576,38.056,52,30,52,30s8,8.7,8,15.763c0,3.053,0,2.794,0,7.809 c0,12.26-11.214,18.404-11.214,18.404S55.89,76,64,76c8.784,0,14-6,14-6s-12-8.106-12-32C66,29.064,62.674,27.37,57.43,27.37 L57.43,27.37z"/><path fill="#36404d" d="M51 44A3 3 0 1 0 51 50 3 3 0 1 0 51 44zM29 44A3 3 0 1 0 29 50 3 3 0 1 0 29 44z"/><path fill="#8bb7f0" d="M14.5,34.7V30C14.5,15.939,25.939,4.5,40,4.5S65.5,15.939,65.5,30v4.7H14.5z"/><path fill="#4e7ab5" d="M40,5c13.785,0,25,11.215,25,25v4.2H15V30C15,16.215,26.215,5,40,5 M40,4C25.641,4,14,15.64,14,30 v5.2h52V30C66,15.64,54.36,4,40,4L40,4z"/><path fill="#8bb7f0" d="M34.5 2.5H45.5V23.214H34.5z"/><path fill="#4e7ab5" d="M45,3v19.714H35V3H45 M46,2H34v21.714h12V2L46,2z"/><g><path fill="#8bb7f0" d="M10.5,39.5V36c0-3.033,2.468-5.5,5.5-5.5h48c3.032,0,5.5,2.467,5.5,5.5v3.5H10.5z"/><path fill="#4e7ab5" d="M64,31c2.757,0,5,2.243,5,5v3H11v-3c0-2.757,2.243-5,5-5H64 M64,30H16c-3.314,0-6,2.686-6,6v4h60 v-4C70,32.686,67.314,30,64,30L64,30z"/></g><path fill="#8bb7f0" d="M44 18L36 18 35.569 28.857 44.411 28.857z"/><path fill="#8bb7f0" d="M21 26.428H59V34.571H21z"/></svg>