<svg xmlns="http://www.w3.org/2000/svg" xmlns:xlink="http://www.w3.org/1999/xlink" viewBox="0 0 32 32" fill="#09A258">
  <path d="M16 3C15.083334 3 14.268559 3.3797556 13.751953 3.9609375C13.235347 4.5421194 13 5.2777779 13 6C13 6.2000208 13.171835 6.3659047 13.208984 6.5644531L9.8417969 8.6699219C9.3413684 8.2824476 8.7257163 8 8 8C7.0833335 8 6.268559 8.3797556 5.7519531 8.9609375C5.2353472 9.5421194 5 10.277778 5 11C5 11.722222 5.2353472 12.457881 5.7519531 13.039062C6.268559 13.620245 7.0833335 14 8 14C8.7257163 14 9.3413684 13.717552 9.8417969 13.330078L13.208984 15.435547C13.171835 15.634095 13 15.799979 13 16C13 16.722222 13.235347 17.457881 13.751953 18.039062C14.065738 18.39207 14.510377 18.630587 15 18.794922L15 23.205078C14.678295 23.313053 14.410466 23.474598 14.158203 23.669922L10.791016 21.564453C10.828165 21.365905 11 21.200021 11 21C11 20.277778 10.764653 19.542119 10.248047 18.960938C9.7314409 18.379756 8.9166665 18 8 18C7.0833335 18 6.268559 18.379756 5.7519531 18.960938C5.2353472 19.542119 5 20.277778 5 21C5 21.722222 5.2353472 22.457881 5.7519531 23.039062C6.268559 23.620244 7.0833335 24 8 24C8.7257163 24 9.3413684 23.717552 9.8417969 23.330078L13.208984 25.435547C13.171835 25.634095 13 25.799979 13 26C13 26.722222 13.235347 27.457882 13.751953 28.039062C14.268559 28.620244 15.083334 29 16 29C16.916666 29 17.731441 28.620244 18.248047 28.039062C18.764653 27.457881 19 26.722222 19 26C19 25.799979 18.828165 25.634095 18.791016 25.435547L22.158203 23.330078C22.658632 23.717552 23.274284 24 24 24C24.916666 24 25.731441 23.620244 26.248047 23.039062C26.764653 22.457881 27 21.722222 27 21C27 20.277778 26.764653 19.542119 26.248047 18.960938C25.731441 18.379756 24.916666 18 24 18C23.083334 18 22.268559 18.379756 21.751953 18.960938C21.235347 19.542119 21 20.277778 21 21C21 21.200021 21.171835 21.365905 21.208984 21.564453L17.841797 23.669922C17.589534 23.474598 17.321705 23.313053 17 23.205078L17 18.794922C17.489623 18.630587 17.934262 18.39207 18.248047 18.039062C18.764653 17.457881 19 16.722222 19 16C19 15.799979 18.828165 15.634095 18.791016 15.435547L22.158203 13.330078C22.658632 13.717552 23.274284 14 24 14C24.916666 14 25.731441 13.620244 26.248047 13.039062C26.764653 12.457882 27 11.722222 27 11C27 10.277778 26.764653 9.5421194 26.248047 8.9609375C25.731441 8.3797556 24.916666 8 24 8C23.083334 8 22.268559 8.3797556 21.751953 8.9609375C21.235347 9.5421194 21 10.277778 21 11C21 11.200021 21.171835 11.365905 21.208984 11.564453L17.841797 13.669922C17.341368 13.282448 16.725716 13 16 13C15.274284 13 14.658632 13.282448 14.158203 13.669922L10.791016 11.564453C10.828165 11.365905 11 11.200021 11 11C11 10.799979 10.828165 10.634095 10.791016 10.435547L14.158203 8.3300781C14.658632 8.7175524 15.274284 9 16 9C16.916666 9 17.731441 8.6202444 18.248047 8.0390625C18.764653 7.4578806 19 6.7222221 19 6C19 5.2777779 18.764653 4.5421194 18.248047 3.9609375C17.731441 3.3797556 16.916666 3 16 3 z M 16 5C16.416666 5 16.601893 5.1202444 16.751953 5.2890625C16.902014 5.4578806 17 5.7222221 17 6C17 6.2777779 16.902014 6.5421194 16.751953 6.7109375C16.601893 6.8797556 16.416666 7 16 7C15.583334 7 15.398107 6.8797556 15.248047 6.7109375C15.097986 6.5421194 15 6.2777779 15 6C15 5.7222221 15.097986 5.4578806 15.248047 5.2890625C15.398107 5.1202444 15.583334 5 16 5 z M 8 10C8.4166663 10 8.6018927 10.120244 8.7519531 10.289062C8.9020136 10.457882 9 10.722222 9 11C9 11.277778 8.9020136 11.542119 8.7519531 11.710938C8.6018927 11.879755 8.4166663 12 8 12C7.5833337 12 7.3981073 11.879756 7.2480469 11.710938C7.0979864 11.542118 7 11.277778 7 11C7 10.722222 7.0979864 10.457881 7.2480469 10.289062C7.3981073 10.120245 7.5833337 10 8 10 z M 24 10C24.416666 10 24.601893 10.120244 24.751953 10.289062C24.902014 10.457882 25 10.722222 25 11C25 11.277778 24.90201 11.542119 24.751953 11.710938C24.601893 11.879755 24.416666 12 24 12C23.583334 12 23.398107 11.879756 23.248047 11.710938C23.097986 11.542118 23 11.277778 23 11C23 10.722222 23.097986 10.457881 23.248047 10.289062C23.398107 10.120245 23.583334 10 24 10 z M 16 15C16.416666 15 16.601893 15.120244 16.751953 15.289062C16.902014 15.457882 17 15.722222 17 16C17 16.277778 16.90201 16.542119 16.751953 16.710938C16.601893 16.879756 16.416666 17 16 17C15.583334 17 15.398107 16.879756 15.248047 16.710938C15.097986 16.542119 15 16.277778 15 16C15 15.722222 15.097986 15.457881 15.248047 15.289062C15.398107 15.120245 15.583334 15 16 15 z M 8 20C8.4166663 20 8.6018927 20.120244 8.7519531 20.289062C8.9020136 20.457881 9 20.722222 9 21C9 21.277778 8.9020136 21.542119 8.7519531 21.710938C8.6018927 21.879756 8.4166663 22 8 22C7.5833337 22 7.3981073 21.879756 7.2480469 21.710938C7.0979864 21.542119 7 21.277778 7 21C7 20.722222 7.0979864 20.457881 7.2480469 20.289062C7.3981073 20.120244 7.5833337 20 8 20 z M 24 20C24.416666 20 24.601893 20.120244 24.751953 20.289062C24.902014 20.457881 25 20.722222 25 21C25 21.277778 24.90201 21.542119 24.751953 21.710938C24.601893 21.879756 24.416666 22 24 22C23.583334 22 23.398107 21.879756 23.248047 21.710938C23.097986 21.542119 23 21.277778 23 21C23 20.722222 23.097986 20.457881 23.248047 20.289062C23.398107 20.120244 23.583334 20 24 20 z M 16 25C16.416666 25 16.601893 25.120244 16.751953 25.289062C16.902014 25.457881 17 25.722222 17 26C17 26.277778 16.90201 26.542118 16.751953 26.710938C16.601893 26.879756 16.416666 27 16 27C15.583334 27 15.398107 26.879756 15.248047 26.710938C15.097986 26.542119 15 26.277778 15 26C15 25.722222 15.097986 25.457882 15.248047 25.289062C15.398107 25.120244 15.583334 25 16 25 z" fill="#09A258" />
</svg>